<?xml version="1.0" encoding="UTF-8" standalone="no"?>
<!-- Generator: Adobe Illustrator 12.0.0, SVG Export Plug-In . SVG Version: 6.00 Build 51448)  -->

<svg
   xmlns:dc="http://purl.org/dc/elements/1.1/"
   xmlns:cc="http://creativecommons.org/ns#"
   xmlns:rdf="http://www.w3.org/1999/02/22-rdf-syntax-ns#"
   xmlns:svg="http://www.w3.org/2000/svg"
   xmlns="http://www.w3.org/2000/svg"
   xmlns:sodipodi="http://sodipodi.sourceforge.net/DTD/sodipodi-0.dtd"
   xmlns:inkscape="http://www.inkscape.org/namespaces/inkscape"
   version="1.1"
   id="Layer_1"
   width="312.53571"
   height="312.53571"
   viewBox="0 0 550.68055 550.68054"
   overflow="visible"
   enable-background="new 0 0 490.476 632.969"
   xml:space="preserve"
   sodipodi:docname="comedy_central.svg"
   style="overflow:visible"
   inkscape:version="0.92.2 (5c3e80d, 2017-08-06)"><metadata
     id="metadata119"><rdf:RDF><cc:Work
         rdf:about=""><dc:format>image/svg+xml</dc:format><dc:type
           rdf:resource="http://purl.org/dc/dcmitype/StillImage" /><dc:title></dc:title></cc:Work></rdf:RDF></metadata><defs
     id="defs117" /><sodipodi:namedview
     pagecolor="#ffffff"
     bordercolor="#000000"
     borderopacity="0.25"
     objecttolerance="10"
     gridtolerance="10"
     guidetolerance="10"
     inkscape:pageopacity="0"
     inkscape:pageshadow="2"
     inkscape:window-width="1653"
     inkscape:window-height="856"
     id="namedview115"
     showgrid="false"
     fit-margin-top="0"
     fit-margin-left="0"
     fit-margin-right="0"
     fit-margin-bottom="0"
     inkscape:zoom="0.65694597"
     inkscape:cx="117.63352"
     inkscape:cy="156.26774"
     inkscape:window-x="0"
     inkscape:window-y="0"
     inkscape:window-maximized="0"
     inkscape:current-layer="Layer_1" /><g
     id="g112"
     transform="translate(30.101749,-41.144014)"><path
       d="m 38.653,352.456 2.871,14.476 9.56,47.789 13.88,73.824 1.718,9.125 c 0,0 4.652,14.525 49.142,19.585 21.376,2.428 51.913,3.763 95.532,-1.739 37.074,-4.68 65.225,-9.846 87.937,-15.292 42.474,-10.174 65.841,-18.591 80.186,-24.131 68.886,-26.806 71.646,-51.064 71.646,-51.064 l -3.114,-16.088 -5.909,-30.657 -13.786,-70.444 -2.834,-14.981 -2.557,-13.787 c 0,0 0.18,16.468 -26.826,35.285 -6.242,4.375 -13.931,7.696 -23.449,12.224 -13.32,6.343 -23.445,10.51 -51.52,20.305 -22.939,7.975 -45.031,12.629 -64.768,16.923 -21.737,4.705 -41.221,6.646 -58.431,9.132 -38.558,5.526 -65.769,5.963 -81.641,5.698 -78.092,-1.223 -77.637,-26.183 -77.637,-26.183 z"
       id="path2"
       inkscape:connector-curvature="0"
       style="clip-rule:evenodd;fill:#ffffff;fill-rule:evenodd" /><polygon
       points="143.623,79.238 121.276,61.162 124.421,57.582 146.405,75.666 "
       id="polygon4"
       style="clip-rule:evenodd;fill-rule:evenodd" /><polygon
       points="142.317,94.736 112.244,95.685 112.195,90.901 141.935,90.163 "
       id="polygon6"
       style="clip-rule:evenodd;fill-rule:evenodd" /><polygon
       points="154.669,41.144 155.894,66.41 150.906,66.635 149.762,41.556 "
       id="polygon8"
       style="clip-rule:evenodd;fill-rule:evenodd" /><polygon
       points="185.917,51.652 170.521,75.354 166.766,72.288 181.951,48.558 "
       id="polygon10"
       style="clip-rule:evenodd;fill-rule:evenodd" /><polygon
       points="174.971,92.336 205.266,85.227 204.072,80.319 173.716,87.633 "
       id="polygon12"
       style="clip-rule:evenodd;fill-rule:evenodd" /><polygon
       points="149.834,106.913 126.465,124.504 123.449,120.822 146.948,103.281 "
       id="polygon14"
       style="clip-rule:evenodd;fill-rule:evenodd" /><path
       d="m 158.197,88.09 c 5.444,8.466 10.481,17.953 15.033,27 l 10.278,-3.197 c 4.016,8.719 7.597,17.875 11.36,26.723 l 3.904,-0.971 0.719,1.739 c 1.971,5.14 3.762,10.612 5.675,15.903 l 0.183,0.435 c 3.275,-0.507 9.819,-1.994 9.819,-1.994 4.909,15.418 8.721,32.728 12.707,48.354 l 0.182,-0.999 0.203,-1.096 c 0.666,-5.249 1.479,-10.438 1.993,-15.75 0.303,-0.977 0.355,-2.326 1.223,-3.072 2.357,-0.821 4.815,-1.609 7.141,-2.582 1.022,-1.384 1.275,-3.298 2.117,-4.937 4.604,-9.719 13.939,-16.671 25.085,-16.54 7.396,-0.159 15.192,4.857 18.007,11.635 0.434,0.709 0.992,2.861 0.992,2.861 0.534,1.66 0.769,2.762 0.999,4.573 l 1.307,0.211 c 4.521,0.637 8.486,1.225 12.957,2.145 l 0.848,0.124 c -4.398,15.322 -8.051,30.74 -10.378,46.461 3.703,1.304 7.64,2.174 11.453,3.226 14.778,4.502 28.717,10.431 42.676,18.49 9.691,0.376 19.354,0.637 28.992,1.609 1.669,0.405 3.43,0.405 5.142,0.739 11.66,1.485 21.816,3.936 32.323,10.328 8.691,5.675 13.498,16.063 11.424,26.34 -2.58,11.125 -11.116,18.845 -18.766,25.107 -6.928,5.726 -14.523,9.591 -22.425,13.911 -5.008,2.555 -9.763,4.451 -14.778,6.753 -33.263,14.191 -66.147,24.265 -104.911,32.524 -25.005,5.419 -48.511,9.074 -74.54,12.3 -35.131,3.882 -69.161,6.493 -103.098,1.505 -11.095,-1.505 -22.193,-3.428 -32.421,-8.563 -9.125,-4.906 -14.809,-14.626 -13.452,-25.288 2.863,-17.593 19.714,-26.872 32.886,-35.285 9.871,-5.575 19.969,-10.33 30.681,-14.677 9.619,-12.432 20.737,-23.631 32.603,-33.343 -3.987,-4.553 -9.33,-9.335 -13.91,-13.604 l 1.688,-22.274 -6.625,-7.771 -0.71,-15.575 c 2.298,-1.966 4.472,-3.474 6.951,-5.112 5.017,-3.174 14.272,-7.9 17.033,-9.103 5.291,6.211 10.024,13.09 15.032,19.28 l 6.14,-2.841 c 0.92,1.05 2.117,2.689 2.885,3.833 5.399,7.647 10.509,15.858 15.699,23.659 h 0.311 c -0.586,-2.023 -1.688,-4.097 -2.484,-6.169 -5.14,-11.503 -10.25,-22.549 -16.157,-33.646 l 0.153,-0.667 c 1.383,-7.212 1.739,-14.627 2.739,-22.013 0,0 4.928,-2.174 5.037,-2.224 l -4.71,-10.228 1.637,-9.921 c -2.074,-4.069 -7.182,-13.758 -7.182,-13.758 0,0 1.71,-9.54 2.375,-13.503 l 5.344,-1.74 c -2.531,-9.125 -6.517,-19.098 -10.229,-28.021 z"
       id="path16"
       inkscape:connector-curvature="0"
       style="clip-rule:evenodd;fill-rule:evenodd" /><path
       d="m 450.842,422.164 c 0.486,2.346 1.174,5.521 1.588,7.873 0.252,1.587 -0.182,2.681 -0.383,3.579 -1.588,6.039 -5.933,11.939 -10.409,16.132 -2.558,2.865 -5.546,5.04 -8.307,7.494 -2.102,1.511 -3.583,2.586 -5.683,4.091 -0.587,0.614 -1.074,1.941 -0.862,1.252 -10.285,34.263 -33.399,67.45 -61.783,89.192 -19.557,15.519 -40.757,26.457 -65.56,33.421 l -1.125,0.322 c -10.894,2.972 -22.498,4.768 -33.602,5.761 -39.706,2.909 -77.679,-5.831 -111.84,-26.869 -17.004,-10.03 -31.347,-23.229 -44.235,-37.823 l -1.508,-1.606 c -0.637,-0.437 -0.768,-0.702 -1.456,-0.822 -10.053,-1.789 -19.614,-4.502 -28.9,-9.745 -2.811,-1.789 -5.16,-3.453 -7.211,-5.755 -1.021,-0.815 -1.175,-2.555 -1.479,-3.705 l -1.585,-7.418 c 0.079,-0.386 0.332,-0.81 0.97,-0.221 2.406,2.807 5.755,5.336 8.415,7.177 8.901,5.604 18.33,7.67 28.021,9.593 18.208,2.683 36.749,3.731 54.846,3.295 3.841,-0.025 5.857,-0.126 9.871,-0.38 0,0 2.226,-0.157 2.509,-0.132 6.829,-0.254 11.917,-0.538 18.533,-1.044 l 2.256,-0.05 c 2.247,-0.26 4.349,-0.462 6.363,-0.696 0.435,0 1.021,0.057 1.565,-0.101 9.457,-1.024 18.766,-1.563 28.79,-3.371 2.122,-0.209 4.399,-0.62 6.697,-0.872 19.281,-3.144 37.104,-5.724 57.021,-10.535 10.179,-2.068 21.302,-5.061 31.296,-7.805 1.588,-0.404 3.453,-1.145 5.322,-1.474 1.201,-0.436 4.521,-1.334 6.826,-2.124 11.222,-3.504 22.013,-6.748 33.292,-10.846 4.348,-1.536 7.952,-3.017 12.501,-4.807 0.719,-0.253 2.098,-0.897 3.067,-1.1 1.639,-0.715 4.449,-1.992 6.242,-2.732 2.173,-0.948 7.415,-3.301 8.851,-4.016 5.289,-2.479 10.478,-4.964 15.468,-7.98 0,0 2.245,-1.201 4.218,-2.346 1.817,-1.183 3.298,-2.125 4.904,-3.302 0.974,-0.594 5.221,-3.61 6.422,-4.527 2.248,-1.479 5.909,-5.091 7.75,-6.779 1.276,-1.354 2.607,-2.662 3.936,-4.452 l 0.898,-1.145 c 0.74,-0.999 1.479,-1.941 1.479,-1.941 0.769,-1.132 1.101,-1.821 1.79,-2.839 0.516,-0.924 0.971,-1.714 1.334,-2.612 0.841,-1.707 1.729,-3.655 2.375,-5.344 0.181,-0.253 0.412,-0.302 0.512,0.134 z"
       id="path18"
       inkscape:connector-curvature="0"
       style="clip-rule:evenodd;fill-rule:evenodd" /><path
       d="m 425.756,292.958 c 0.161,1.146 0.516,2.43 0.565,3.039 4.089,23.557 9.54,46.05 13.526,69.323 l 5.727,29.329 c 0.949,5.578 2.173,11.118 3.225,16.645 0.022,0.766 0.022,1.663 0.022,2.251 -1.529,9.796 -9.897,18.819 -17.816,24.574 -14.628,11.529 -31.661,18.864 -49.152,26.004 -16.417,6.981 -33.978,12.451 -51.236,17.796 l -23.397,6.494 c -6.22,2.023 -13.047,3.067 -19.613,4.553 -37.791,8.335 -77.019,13.653 -115.114,15.979 -25.369,0.975 -51.377,1.739 -76.07,-3.914 -10.792,-2.353 -24.804,-7.897 -31.074,-15.848 -0.326,-0.417 -0.275,-0.638 -0.607,-1.074 -1.741,-8.821 -3.508,-17.056 -5.017,-25.801 C 54.05,432.13 48.505,402.37 42.387,372.914 41.952,370.403 41.8,369.05 41.214,366.52 c 0.102,-0.303 0.312,-0.67 0.667,-0.253 3.652,4.807 6.776,8.455 12.707,11.219 7.342,3.579 15.444,5.786 24.013,7.576 3.55,0.708 9.922,1.429 13.626,1.84 27.896,3.041 55.381,2.194 83.635,-1.075 25.672,-2.706 49.94,-6.217 74.459,-10.89 13.909,-2.644 27.262,-5.527 39.713,-8.923 0.386,-0.284 21.454,-5.122 29.125,-7.962 0.819,-0.151 11.531,-3.883 12.351,-4.167 2.89,-0.639 17.234,-6.21 20.713,-7.589 0.662,-0.335 13.242,-5.47 13.701,-5.704 6.27,-2.63 11.744,-5.553 17.488,-8.537 0.971,-0.486 8.67,-4.787 8.982,-5.065 5.695,-3.2 11.32,-7.386 16.568,-11.787 0.709,-0.688 1.174,-0.87 1.813,-1.688 0.382,-0.232 1.123,-1.052 1.123,-1.052 6.039,-5.645 10.228,-12.22 13.146,-19.635 0.256,-0.515 0.661,-0.051 0.712,0.13 z"
       id="path20"
       inkscape:connector-curvature="0"
       style="clip-rule:evenodd;fill-rule:evenodd" /><path
       d="m 423.175,318.652 c 0.181,0.689 -0.05,1.438 -0.13,2.173 -0.05,1.309 -0.92,7.771 -0.92,7.771 -0.05,1.79 -0.761,5.571 -0.761,5.571 0,0 -0.849,5.274 -1.357,7.829 -0.433,1.815 -1.201,6.596 -1.482,8.233 0,0 -1.024,5.293 -1.104,5.597 0,0 -0.405,2.074 -0.61,2.896 v 0.531 c 1.306,6.678 2.45,13.273 3.504,19.8 0.129,0.581 0.23,0.942 0.027,1.372 -0.645,1.232 -2.276,2.125 -3.531,3.099 -1.615,1.404 -2.862,2.402 -4.831,3.763 -1.386,0.689 -2.814,2.112 -4.351,2.428 -0.152,0.02 -0.438,-0.366 -0.558,-0.335 -1.72,-8.132 -2.813,-14.962 -4.277,-22.962 l -0.456,-0.568 c -7.345,-6.077 -14.475,-11.832 -20.919,-17.84 0.13,-0.031 0.263,-0.537 0.588,-0.671 4.146,-2.017 8.263,-4.136 12.278,-6.545 l 0.537,-0.101 c 4.241,2.966 8.616,6.412 12.958,9.669 l 0.645,-0.411 c 1.43,-7.013 2.915,-14.063 4.189,-21.046 3.662,-3.193 7.162,-6.387 10.359,-10.226 z"
       id="path22"
       inkscape:connector-curvature="0"
       style="clip-rule:evenodd;fill:#f7cb57;fill-rule:evenodd" /><path
       d="m 119.102,403.622 c 0.073,0.076 0.101,0.335 0.202,0.405 -0.718,7.468 -1.638,14.879 -2.479,22.304 l -0.384,0.127 c -1.304,-0.772 -1.971,-1.259 -3.015,-1.866 -0.645,-0.26 -1.051,-0.645 -1.537,-0.974 -4.834,-3.175 -10.743,-4.647 -16.671,-2.758 -3.559,1.329 -7.059,3.731 -8.974,7.539 -0.665,1.232 -0.949,1.89 -1.13,3.274 -1.964,8.898 1.514,18.644 6.676,26.156 5.219,8.309 14.777,17.776 25.623,16.157 3.167,-0.689 6.521,-1.328 9.154,-3.346 l 0.507,-0.101 0.334,0.328 c 2.84,7.703 6.037,14.912 8.769,22.551 0.03,0.848 -0.819,1.233 -1.84,1.739 -1.175,0.437 -2.53,1.024 -3.733,1.354 -5.212,1.694 -10.561,2.125 -16.258,1.619 -0.464,-0.134 -1.689,-0.184 -2.378,-0.462 -12.045,-1.537 -22.94,-9.34 -30.405,-19.433 -8.365,-11.13 -13.889,-23.266 -17.209,-37.538 -0.666,-3.808 -1.535,-7.52 -1.608,-11.282 h 0.073 c -0.718,-8.664 0.362,-17.176 5.805,-24.492 2.377,-3.175 4.683,-5.419 7.931,-7.342 0.325,0.284 1.557,-0.866 1.761,-0.892 14.09,-6.973 29.152,-2.938 40.786,6.933 z"
       id="path24"
       inkscape:connector-curvature="0"
       style="clip-rule:evenodd;fill:#f7cb57;fill-rule:evenodd" /><path
       d="m 330.741,367.925 c 0.565,2.896 1.508,6.729 1.688,9.846 -0.151,1.101 -1.638,1.132 -2.355,1.612 -6.232,1.815 -11.453,3.788 -17.867,5.471 l -0.36,0.493 1.637,8.557 0.404,0.208 c 6.707,-1.663 13.426,-4.116 19.927,-5.755 0.021,0.102 0.534,0.202 0.556,0.285 0.975,2.984 1.692,6.696 1.873,9.429 0.483,1.132 -3.146,1.486 -4.402,2.206 -5.447,1.79 -10.377,3.011 -15.799,4.573 -0.181,0.252 -0.384,0.36 -0.538,0.612 0.408,3.352 1.147,7.064 1.866,10.1 1.789,-0.739 4.296,-1.252 6.339,-1.84 4.886,-1.48 9.337,-2.606 14.01,-3.991 0,0 0.699,-0.024 0.852,0.361 0.87,2.864 1.173,5.982 1.761,8.947 -0.021,0.722 0.534,1.486 -0.869,2.024 -2.612,1.068 -6.084,1.96 -8.845,2.94 -8.878,2.631 -17.599,5.059 -27.078,7.134 h -0.768 l -0.205,-0.336 -0.744,-3.067 -8.41,-45.619 -0.667,-3.731 c -0.079,-0.436 5.675,-1.485 8.417,-2.453 9.641,-2.403 19.584,-5.546 29.143,-8.36 z"
       id="path26"
       inkscape:connector-curvature="0"
       style="clip-rule:evenodd;fill:#f7cb57;fill-rule:evenodd" /><path
       d="m 259.629,385.265 c 6.878,-1.278 12.711,-2.612 19.613,-4.041 0.181,-0.025 0.414,0 0.565,0.158 1.274,5.261 1.942,10.042 3.046,15.133 2.272,11.945 4.217,24.776 6.13,36.229 0.209,1.562 -3.705,1.796 -6.029,2.251 -4.198,0.816 -7.98,1.821 -11.995,2.354 0.05,-0.127 -0.104,-0.178 -0.175,-0.178 -0.487,0.025 -0.465,-0.613 -0.667,-0.942 -1.335,-8.183 -3.378,-16.239 -4.705,-24.656 -0.414,-0.354 -1.05,-0.38 -1.307,0.31 -4.044,5.831 -7.566,10.94 -11.224,16.291 -1.357,1.941 -2.764,-0.311 -4.242,-0.614 l -15.78,-9.973 c -0.128,0.102 -0.23,0.253 -0.361,0.404 1.414,8.544 3.023,16.468 4.582,25.112 -0.153,1.094 -1.792,0.588 -2.611,0.942 -5.958,0.898 -10.843,2.105 -16.953,2.764 -1.021,-0.177 -1.071,-1.758 -1.305,-2.662 l -2.812,-15.487 -5.675,-31.454 c -0.103,-0.924 -0.485,-2.429 -0.507,-3.067 0,-0.133 0.274,-0.354 0.304,-0.386 6.567,-0.79 13.011,-1.841 19.302,-2.58 0.103,0.069 0.516,0.069 0.616,0.151 6.109,3.984 12.451,7.798 18.488,11.939 0.407,0.158 0.813,0.664 1.097,0.158 4.115,-5.837 7.979,-11.813 12.117,-17.871 0.111,-0.032 0.365,-0.267 0.488,-0.285 z"
       id="path28"
       inkscape:connector-curvature="0"
       style="clip-rule:evenodd;fill:#f7cb57;fill-rule:evenodd" /><path
       d="m 386.254,367.362 c 0.565,0.948 1.071,1.587 1.509,2.435 0.638,1.682 1.716,3.269 1.94,5.09 2.125,7.203 0.797,14.779 -2.934,21.191 -1.639,2.511 -3.813,5.653 -6.372,7.393 -1.761,1.714 -3.582,2.884 -5.979,4.243 -2.922,1.714 -6.83,3.244 -9.619,4.376 -2.612,1.019 -5.21,2.118 -7.872,3.137 -1.689,0.771 -4.763,2.049 -5.016,1.436 l -0.174,-1.227 -7.291,-40.479 c -0.769,-3.555 -1.228,-6.646 -1.866,-10.302 0.278,-0.664 0.712,-1.075 1.148,-1.253 4.218,-1.922 8.979,-3.889 13.808,-5.317 10.692,-2.865 22.196,0 28.718,9.277 z m -19.433,5.805 c -1.558,-0.354 -5.391,-0.051 -4.936,1.334 1.122,6.026 2.249,12.623 3.5,18.434 0,0 0.234,1.102 0.617,1.329 0.455,0.228 1.075,-0.152 1.587,-0.431 2.097,-0.898 5.748,-3.712 6.517,-7.702 0.719,-2.58 0.414,-6.388 -1.123,-8.663 -1.226,-2.176 -3.863,-3.84 -6.162,-4.301 z"
       id="path30"
       inkscape:connector-curvature="0"
       style="clip-rule:evenodd;fill:#f7cb57;fill-rule:evenodd" /><path
       d="m 194.33,412.444 c 7.872,10.099 10.836,26.414 4.442,37.942 -3.833,7.165 -10.559,12.332 -18.279,14.374 -1.051,0.285 -2.964,0.721 -2.964,0.721 -2.073,0.152 -2.711,0.322 -4.834,0.272 -15.163,0.284 -31.066,-10.023 -37.336,-23.986 -3.219,-6.564 -4.776,-15.26 -3.371,-22.627 1.509,-9.327 8.873,-18.459 17.665,-21.627 16.597,-6.159 34.674,1.329 44.677,14.931 z m -25.217,3.503 c -5.291,-1.638 -12.017,-0.177 -15.568,4.345 -3.226,4.553 -3.458,10.586 -0.819,15.499 2.609,5.521 9.002,9.973 15.163,10.176 4.806,0.101 9.002,-1.688 11.763,-5.452 3.167,-4.755 2.733,-11.806 -0.462,-16.536 -2.247,-3.605 -5.929,-6.748 -10.077,-8.032 z"
       id="path32"
       inkscape:connector-curvature="0"
       style="clip-rule:evenodd;fill:#f7cb57;fill-rule:evenodd" /><path
       d="m 424.663,395.003 c 0.717,2.864 0.817,3.712 1.276,6.596 0,0 1.739,8.821 2.529,12.433 l 0.159,0.102 c 2.5,-1.993 4.622,-4.503 6.848,-6.906 0.408,0 0.103,-0.228 0.408,0 l 0.484,1.385 0.516,2.195 c 0.23,1.302 0.84,2.813 0.588,3.294 -0.102,0.133 -0.639,0.873 -0.741,1.006 -0.413,0.639 -0.436,0.739 -0.868,1.321 -0.387,0.234 -0.465,0.955 -1.003,1.259 -0.971,1.385 -2.378,2.688 -3.37,3.934 -2.15,2.384 -5.268,4.913 -8.006,6.88 -0.127,0.025 -0.813,0.487 -0.813,0.487 -0.263,0.31 -0.436,0.075 -0.645,-0.076 l -0.275,-1.385 -5.198,-28.173 c 0.13,-0.102 0.209,-0.563 0.332,-0.664 2.175,-1.536 4.582,-2.864 6.779,-4.451 0.635,-0.457 0.767,0.099 1,0.763 z"
       id="path34"
       inkscape:connector-curvature="0"
       style="clip-rule:evenodd;fill:#f7cb57;fill-rule:evenodd" /><path
       d="m 399.474,408.915 c 6.112,7.646 11.969,15.469 17.672,23.315 0.051,0.159 0.275,0.437 0.102,0.595 -0.029,0.253 -4.937,3.833 -5.653,3.959 -0.254,0.031 -0.281,-0.076 -0.516,-0.051 -1.527,-1.891 -2.936,-3.503 -4.218,-5.312 -0.051,-0.108 -0.405,-0.164 -0.484,-0.26 -2.349,1.201 -3.247,1.632 -5.575,2.94 -0.407,0.152 -1.912,1.05 -2.659,1.372 -0.356,0.114 -0.79,0.367 -0.995,0.671 -0.102,0.151 -0.102,1.024 -0.181,1.15 0.051,0.873 0.029,4.572 0.029,4.572 0.05,1.486 0.174,3.611 -0.26,3.764 -0.021,0.233 -0.386,0.252 -0.509,0.359 -0.231,0.178 -0.535,0.26 -0.87,0.462 -0.18,0.234 -5.957,2.453 -6.209,2.403 -0.213,-0.058 -0.285,-0.126 -0.364,-0.158 l -0.123,-5.957 0.152,-28.608 c 0.072,-0.387 2.014,-1.151 3.066,-1.739 l 7.029,-3.58 z m -2.356,10.688 c -0.021,2.713 -0.021,5.628 0.13,8.24 l 0.387,0.101 c 1.587,-0.797 3.066,-1.612 4.55,-2.593 l -0.051,-0.322 c -1.688,-1.79 -2.89,-3.863 -4.499,-5.735 -0.283,0.049 -0.415,0.157 -0.517,0.309 z"
       id="path36"
       inkscape:connector-curvature="0"
       style="clip-rule:evenodd;fill:#f7cb57;fill-rule:evenodd" /><path
       d="m 336.647,434.508 c 0.102,0.133 0.304,0.031 0.486,0.36 0.463,2.2 1.05,4.729 1.174,7.133 0.18,0.949 -2.884,1.437 -4.42,1.992 -1.022,0.316 -2.378,0.689 -3.248,1.126 l -0.202,0.461 c 1.274,7.703 3.013,16.107 4.117,23.684 l -0.051,0.556 c -0.285,0.335 -0.565,0.52 -1.895,0.924 -0.616,0.177 -1.179,0.36 -2.122,0.588 -1.255,0.228 -3.554,1.177 -4.935,1.227 -0.256,0.127 -0.184,0.051 -0.408,-0.126 -1.486,-8.183 -2.944,-15.777 -4.426,-23.803 -0.207,-0.588 -0.337,-0.569 -0.689,-0.639 -1.154,0.152 -2.862,0.759 -4.117,0.942 -1.688,0.462 -3.479,1.125 -5.009,1.17 l -0.23,-0.222 c -0.517,-2.049 -1.076,-5.091 -1.407,-7.108 -0.051,-0.304 -0.051,-0.519 0.152,-0.619 2.911,-0.74 6.313,-1.688 9.333,-2.479 6.748,-1.708 11.789,-3.378 17.897,-5.167 z"
       id="path38"
       inkscape:connector-curvature="0"
       style="clip-rule:evenodd;fill:#f7cb57;fill-rule:evenodd" /><path
       d="m 369.402,425.199 c 2.096,0.847 4.166,2.276 5.141,4.483 0.921,1.354 1.252,3.01 1.332,4.37 0.103,1.302 -0.13,2.479 -0.585,3.579 -0.285,0.815 -0.617,1.556 -0.953,2.226 -0.079,0.202 0.051,0.335 0,0.537 2.685,3.396 5.396,7.026 7.671,10.429 l 0.411,0.797 c -0.027,0.202 -0.051,0.354 -0.101,0.486 -0.102,0.253 -3.479,1.841 -4.885,2.814 -0.87,0.43 -2.173,1.271 -2.508,0.866 -0.23,-0.057 -0.718,-0.486 -0.893,-0.715 -2.326,-2.896 -4.217,-5.35 -6.646,-8.265 -0.282,-0.506 -0.383,-0.588 -0.747,-0.588 -2.226,0.619 -4.318,1.688 -6.393,2.276 -0.151,0.102 -0.051,0.253 -0.202,0.36 l 0.998,6.469 c 0.052,0.336 0.589,3.093 0.589,3.093 -0.183,0.253 0.333,1.84 0.174,2.176 -0.101,0.233 -0.05,0.202 -0.174,0.436 -0.746,0.354 -1.717,0.607 -2.326,0.866 -0.697,0.335 -3.327,1.259 -4.554,1.613 -0.282,0.101 -1.454,0.537 -1.717,0.386 -0.102,-0.051 -0.225,-0.311 -0.305,-0.437 -1.121,-4.452 -1.761,-9.391 -2.864,-13.963 -1.15,-5.882 -2.171,-12.016 -3.193,-17.902 -0.054,-0.335 0.029,-0.538 0.534,-0.689 4.298,-1.688 8.588,-3.245 12.939,-4.883 0.331,-0.151 0.464,-0.126 0.739,-0.284 1.588,-0.455 3.354,-0.942 4.762,-0.942 0.002,10e-4 2.503,0.027 3.756,0.406 z m -4.623,7.392 c -0.948,-0.176 -4.632,1.36 -6.675,2.227 -0.206,0.076 -0.206,0.513 -0.537,0.613 l 1.122,5.679 3.551,-1.15 c 2.001,-0.639 3.993,-1.101 5.147,-3.099 0.483,-0.866 0.275,-1.967 -0.13,-2.84 -0.464,-0.917 -1.103,-1.12 -2.478,-1.43 z"
       id="path40"
       inkscape:connector-curvature="0"
       style="clip-rule:evenodd;fill:#f7cb57;fill-rule:evenodd" /><path
       d="m 217.566,462.535 c 0,0 0,0.076 0,0.505 -0.89,2.309 -2.325,5.249 -3.731,7.419 -0.122,0.259 -0.253,0.385 -0.666,0.284 -1.125,-0.335 -2.146,-0.462 -3.807,-0.354 -2.144,0.304 -4.5,1.556 -5.805,3.548 -0.386,0.588 -0.668,1.183 -0.79,1.941 -0.616,2.226 0.122,5.065 1.862,7.013 2.255,2.403 5.502,2.96 8.388,1.917 1.1,-0.646 1.992,-1 2.892,-2.068 0.18,-0.102 0.406,-0.051 0.513,0.051 2.269,1.739 4.655,4.066 6.646,6.026 0.104,0.26 0.125,0.569 -0.079,0.695 -0.768,1.126 -2.021,2.068 -2.885,2.814 -0.746,0.506 -1.588,1.094 -2.334,1.404 -1.609,0.639 -3.603,1.258 -5.363,1.512 -1.536,0.403 -4.168,0.227 -4.168,0.227 -0.869,-0.075 -1.949,-0.36 -2.558,-0.53 -2.944,-0.721 -5.705,-2.612 -6.93,-3.536 -2.762,-1.94 -6.393,-8.031 -6.371,-13.217 0.051,-3.452 0.516,-6.007 2.586,-9.004 l 0.639,-1.202 c 3.683,-5.495 10.814,-8.354 17.157,-7.26 1.82,0.259 4.834,1.403 4.804,1.815 z"
       id="path42"
       inkscape:connector-curvature="0"
       style="clip-rule:evenodd;fill:#f7cb57;fill-rule:evenodd" /><path
       d="m 299.545,445.15 c 2.071,9.992 4.246,21.957 5.935,31.575 -0.05,0.31 0,0.613 -0.18,0.79 -0.459,0.335 -1.559,0.538 -2.277,0.722 -2.042,0.563 -4.397,1.05 -6.292,1.505 l -0.892,-0.203 c -5.727,-4.142 -11.278,-8.233 -16.951,-12.604 -0.414,-0.233 -0.717,-0.101 -0.666,0.254 l 2.659,15.752 c -0.153,0.051 -0.051,0.152 -0.181,0.229 -3.017,0.974 -6.6,1.562 -9.691,1.764 l -0.387,-0.284 c -0.252,-0.658 -0.534,-2.549 -0.79,-3.573 l -5.059,-28.16 c -0.028,-0.202 0.256,-0.253 0.538,-0.322 2.709,-0.569 5.675,-1.467 8.334,-1.771 0.275,-0.019 0.769,-0.184 1.021,0.051 6.112,4.856 12.301,9.258 18.413,14.089 0.303,0.285 0.585,0.152 0.455,-0.277 -0.942,-5.831 -2.172,-11.737 -3.115,-17.208 -0.05,-0.209 0.13,-0.386 0.304,-0.568 3.023,-0.791 5.372,-1.277 8.386,-1.942 z"
       id="path44"
       inkscape:connector-curvature="0"
       style="clip-rule:evenodd;fill:#f7cb57;fill-rule:evenodd" /><path
       d="m 251.345,455.401 0.331,0.278 1.154,6.652 c -0.132,0.203 -0.154,0.304 -0.306,0.455 -1.688,0.487 -4.429,0.74 -6.544,1.126 l -7.959,1.385 c 0,0.184 -0.173,0.234 -0.173,0.437 0.048,1.48 0.637,3.599 0.816,4.907 0.073,0.361 0.125,0.74 0.386,0.633 h 0.203 c 4.855,-0.759 9.206,-1.575 14.313,-2.296 0.263,0.051 0.415,0.335 0.465,0.487 0.357,1.485 0.537,3.117 0.769,4.572 -0.028,0.335 0.123,0.847 -0.897,0.897 l -2.098,0.411 c -3.398,0.582 -7.745,1.404 -11.479,2.15 l -0.152,0.304 0.841,4.837 c 0.079,0.329 0.152,0.766 0.362,0.766 h 0.255 c 5.009,-0.544 9.406,-1.436 13.987,-2.227 0.174,-0.024 0.304,0.152 0.51,0.127 0.534,1.714 0.563,3.346 0.948,5.065 0.101,0.607 0.304,1.606 0.151,1.557 l -0.202,0.232 c -0.818,0.203 -1.233,0.304 -2.052,0.455 -0.87,0.134 -1.457,0.234 -2.166,0.311 -0.465,0.209 -1.255,0.259 -1.638,0.379 -2.48,0.488 -5.676,0.898 -8.489,1.335 -3.146,0.387 -6.14,0.892 -9.133,1.05 -0.405,0 -0.616,-0.025 -0.817,-0.336 l -0.073,-0.562 c -2.153,-10.378 -3.994,-20.56 -5.625,-31.246 -0.107,-0.506 0.507,-0.487 1.022,-0.62 7.822,-0.915 15.489,-2.477 23.29,-3.521 z"
       id="path46"
       inkscape:connector-curvature="0"
       style="clip-rule:evenodd;fill:#f7cb57;fill-rule:evenodd" /><path
       d="m 179.472,123.938 c 2.398,5.654 4.885,11.482 7.109,17.084 -2.174,0.661 -6.727,1.892 -6.857,1.915 -1.225,-2.863 -5.653,-13.141 -7.669,-18.208 2.226,-0.659 4.552,-1.528 6.75,-2.224 z"
       id="path48"
       inkscape:connector-curvature="0"
       style="clip-rule:evenodd;fill:#d5dbee;fill-rule:evenodd" /><path
       d="m 209.434,165.826 c 11.308,40.119 20.999,81.006 28.922,122.196 l -3.835,0.972 c -5.088,1.152 -10.096,2.762 -14.909,3.805 l -0.354,-1.298 c -12.606,-39.763 -27.848,-78.626 -43.062,-116.579 10.771,-3.703 21.708,-6.697 32.784,-9.176 0.151,-0.03 0.282,-0.05 0.454,0.08 z"
       id="path50"
       inkscape:connector-curvature="0"
       style="clip-rule:evenodd;fill:#d5dbee;fill-rule:evenodd" /><path
       d="m 272.34,169.529 c 1.328,1.537 2.299,3.915 2.277,5.908 0,0 -13.423,-0.566 -19.693,-0.538 0.101,-2.022 1.407,-3.885 2.711,-5.393 2.537,-2.709 6.93,-3.631 10.458,-2.659 1.488,0.436 3.175,1.479 4.247,2.682 z"
       id="path52"
       inkscape:connector-curvature="0"
       style="clip-rule:evenodd;fill:#d5dbee;fill-rule:evenodd" /><path
       d="m 142.672,208.655 1.769,2.327 -7.24,3.399 c -2.377,-3.427 -8.025,-11.075 -8.076,-11.147 1.074,-0.768 5.471,-3.196 6.777,-3.682 z"
       id="path54"
       inkscape:connector-curvature="0"
       style="clip-rule:evenodd;fill:#d5dbee;fill-rule:evenodd" /><path
       d="m 286.405,187.839 c 0.101,0.079 2.122,0.254 2.144,0.333 l -0.073,0.74 c -6.494,28.789 -9.536,58.122 -11.146,87.934 l -0.053,0.362 c -7.289,-0.384 -16.313,-0.158 -23.782,0 v -0.485 l -0.97,-31.943 0.357,-24.594 c 0.332,-11.689 1.021,-23.295 2.529,-34.675 11.096,0.154 20.249,0.791 30.994,2.328 z"
       id="path56"
       inkscape:connector-curvature="0"
       style="clip-rule:evenodd;fill:#d5dbee;fill-rule:evenodd" /><path
       d="m 158.27,217.984 c 15.577,22.679 29.203,46.563 41.735,71.081 0,0 -2.892,1.77 -4.48,2.487 -3.145,1.609 -6.979,3.683 -10.073,5.06 0,0 -1.225,-2.326 -1.61,-2.813 -4.785,-8.233 -9.995,-16.54 -14.829,-24.751 -6.778,-10.176 -13.294,-20.585 -20.708,-30.5 -2.993,-4.531 -10.024,-13.837 -10.024,-13.837 5.829,-3.296 12.039,-6.139 18.461,-8.588 z"
       id="path58"
       inkscape:connector-curvature="0"
       style="clip-rule:evenodd;fill:#d5dbee;fill-rule:evenodd" /><polygon
       points="193.126,149.024 196.222,158.23 185.4,161.116 182.363,152.12 "
       id="polygon60"
       style="clip-rule:evenodd;fill:#d5dbee;fill-rule:evenodd" /><path
       d="m 303.001,239.308 c 35.104,11.227 69.265,35.828 89.668,66.307 0.361,0.789 -0.252,1.05 -0.537,1.456 -0.841,0.435 -1.609,1.406 -2.58,1.871 -2.53,1.507 -5.17,3.247 -7.719,4.471 -1.485,0.993 -3.43,1.914 -5.45,3.097 -0.459,0.282 -3.785,2.014 -4.807,2.4 -3.449,1.814 -7.082,3.503 -10.409,4.933 -7.566,3.25 -14.364,5.938 -21.861,8.872 -0.819,0.259 -1.533,0.486 -2.479,0.797 -3.76,1.359 -8.486,2.883 -12.25,4.268 -5.064,1.639 -9.921,3.271 -15.547,4.89 -11.48,3.42 -22.063,6.108 -33.956,9.409 -2.045,0.278 -3.914,0.892 -5.827,1.353 -0.537,-0.183 -1.306,0.354 -1.944,0.336 -5.399,1.018 -9.356,1.941 -14.627,2.884 l -2.406,0.563 c -3.398,0.455 -6.565,1.512 -10.045,1.688 -1.56,-0.051 -3.71,-1.233 -5.066,-2.555 -1.479,-1.461 -1.428,-4.016 -1.631,-6.064 -0.312,-2.22 1.733,-3.497 2.863,-5.338 2.66,-3.528 4.907,-7.063 7.951,-10.073 1.811,-0.538 3.703,0.43 5.523,0.606 2.86,0.848 5.754,1.563 8.742,1.892 0.563,-0.102 1.281,-0.07 1.584,-0.689 0.516,-2.023 -0.147,-4.269 0.414,-6.343 0.408,-1.303 0.151,-2.808 1.249,-3.857 1.869,-0.26 3.479,0.739 5.369,0.923 1.923,-0.848 4.655,-0.31 5.906,-2.46 1.536,-1.486 2.894,-4.344 5.452,-3.528 2.275,0.689 4.088,-0.278 6.387,-0.228 1.18,-0.152 2.71,-0.411 3.914,-0.051 3.175,1.865 4.913,4.933 7.313,7.291 2.839,4.37 8.335,5.54 12.935,6.596 1.923,0.019 4.251,0.278 5.502,-1.511 0.487,-2.536 -2.121,-3.991 -3.174,-6.008 -2.985,-2.789 -4.825,-6.805 -8.74,-8.851 -3.376,-2.173 -7.547,-4.45 -8.16,-8.769 -0.357,-2.507 -0.054,-4.835 -0.274,-7.364 0.325,-2.631 3.012,-4.016 4.341,-6.242 1.229,-1.941 3.557,-3.269 3.478,-5.827 -1.536,-3.864 -1.485,-8.082 -0.436,-11.887 0.79,-2 -1.325,-2.789 -2.194,-4.044 -0.516,-2.196 -0.87,-4.624 0.455,-6.442 1.334,-1.429 2.791,-2.834 2.791,-4.836 -0.667,-3.088 -4.094,-5.544 -2.611,-8.893 1.536,-4.683 3.353,-9.489 1.205,-14.829 0.123,-0.75 1.173,-0.265 1.688,-0.214 z"
       id="path62"
       inkscape:connector-curvature="0"
       style="clip-rule:evenodd;fill:#7080bc;fill-rule:evenodd" /><path
       d="m 131.735,279.099 c 1.528,2.226 0.608,4.806 0.76,7.256 -0.073,9.952 -0.993,19.714 -0.485,29.768 0.363,3.583 3.349,6.062 3.916,9.741 0.687,2.783 0.818,5.907 2.406,8.133 3.217,5.729 9.944,7.898 14.395,12.629 4.269,2.814 4.703,8.157 7.821,11.763 3.608,3.509 7.03,6.829 10.64,10.358 0.283,0.436 0.231,0.948 -0.334,1.05 -16.975,1.941 -34.414,3.034 -51.033,2.226 -9.568,-0.133 -18.309,-0.386 -27.927,-1.518 -4.371,-0.607 -8.619,-0.942 -12.706,-2.277 -0.153,-0.05 -0.385,-0.253 -0.437,-0.505 0.204,-3.327 1.508,-6.312 2.074,-9.619 8.234,-29.039 25.825,-58.266 48.735,-79.569 1.304,-0.82 1.608,-0.181 2.175,0.564 z"
       id="path64"
       inkscape:connector-curvature="0"
       style="clip-rule:evenodd;fill:#7080bc;fill-rule:evenodd" /><path
       d="m 183.385,360.128 c 2.552,2.042 5.363,3.831 8.285,4.988 0.789,0.513 3.014,0.563 2.196,1.606 -3.604,0.924 -7.698,1.252 -11.534,1.721 -0.738,0.12 -2.457,-2.157 -3.376,-3.409 -2.399,-2.377 -4.19,-5.191 -6.262,-7.74 -0.131,-0.721 -1.001,-1.385 -0.406,-1.947 0.921,-0.791 2.016,-1.48 3.115,-2.1 2.684,-0.253 5.323,4.635 7.982,6.881 z"
       id="path66"
       inkscape:connector-curvature="0"
       style="clip-rule:evenodd;fill:#7080bc;fill-rule:evenodd" /><path
       d="m 411.622,471.255 c 0.225,-0.101 0.459,-0.031 0.438,0.336 0.123,0.657 -0.595,2.378 -0.595,2.295 -0.308,0.689 -0.87,2.358 -0.943,2.46 -0.79,1.91 -1.637,4.066 -2.529,5.926 -0.211,0.417 -0.486,0.771 -0.745,1.41 -3.453,7.646 -7.722,14.677 -12.556,21.868 l -0.608,0.84 c -0.645,1.069 -0.896,1.386 -1.514,2.145 -1.306,1.505 -2.226,3.124 -3.453,4.679 -13.938,17.544 -30.731,33.295 -49.989,43.983 -0.709,0.707 -4.55,2.58 -5.856,3.37 -1.457,0.67 -2.501,1.437 -4.038,2.124 -1.353,0.614 -3.965,1.822 -3.965,1.822 -1.354,0.815 -2.659,1.252 -4.139,2.011 0,0 -4.964,2.175 -7.595,3.174 -1.277,0.672 -6.163,2.378 -7.414,2.866 -8.234,2.63 -16.568,4.735 -24.856,6.36 -14.011,2.593 -29.327,3.251 -43.801,2.328 -0.15,0.031 -1.506,-0.151 -1.506,-0.151 0,0 -4.299,-0.305 -7.011,-0.715 -0.92,-0.126 -1.375,-0.178 -2.174,-0.278 -12.683,-1.512 -25.411,-4.579 -37.56,-9.315 -1.385,-0.405 -2.893,-0.992 -4.473,-1.556 -8.515,-3.453 -17.084,-7.588 -25.012,-12.578 0,0 -0.558,-0.31 -0.972,-0.531 -13.162,-7.702 -25.593,-17.751 -35.639,-28.772 -0.159,-0.203 0.05,-0.329 0.072,-0.531 0.516,0 0.051,-0.083 0.617,0 38.532,2.22 77.911,-0.215 117.036,-6.546 14.396,-1.789 29.196,-4.636 43.186,-7.013 0.534,0.101 1.049,0.285 1.303,0.518 1.638,1.505 2.399,3.934 4.856,4.756 1.306,0.48 2.559,1.095 3.864,0.917 1.587,0.437 3.863,-1.252 4.935,0.842 1.942,1.789 3.219,5.015 6.366,5.09 4.348,2.043 4.783,8.949 10.589,8.36 1.84,0.411 3.886,0.563 5.546,1.613 4.5,3.648 10.254,4.42 15.626,4.855 0,0 1.66,0.103 2.226,0 1.505,0.103 2.812,0.127 4.442,-0.283 2.537,-0.354 4.196,-0.607 6.827,-1.196 2.539,-0.588 4.813,-1.84 6.729,-3.092 0.078,-0.032 2.02,-1.563 2.121,-2.227 0.639,-0.821 0.18,-1.896 -0.051,-2.713 -0.999,-1.333 -2.608,-0.689 -4.044,-0.354 -2.429,1.195 -4.442,-0.158 -6.72,-0.058 -1.97,-0.304 -4.246,-0.259 -5.682,-1.865 -1.508,-2.175 -2.249,-4.756 -2.966,-7.342 -0.225,-1.297 -0.383,-2.915 -0.174,-4.318 0,0 0.174,-1.304 -0.029,-1.714 0.103,-0.229 0.052,-3.347 -0.021,-3.396 -0.414,-1.232 0.711,-2.562 -0.465,-3.561 -1.123,-0.658 -2.245,-0.607 -3.377,-0.556 -1.122,-0.672 -1.302,-2.074 -1.145,-3.226 0.639,-1.689 0.972,-3.371 2.429,-4.471 1.789,-1.462 4.622,-1.822 6.877,-2.713 22.063,-6.477 43.803,-15.165 64.661,-24.499 1.154,-0.486 1.973,-0.891 2.871,-1.378 z"
       id="path68"
       inkscape:connector-curvature="0"
       style="clip-rule:evenodd;fill:#7080bc;fill-rule:evenodd" /><path
       d="m 156.256,225.195 c 2.347,2.944 4.291,6.141 6.442,9.234 -2.203,1.298 -4.501,2.529 -6.958,3.805 -2.146,-2.912 -4.451,-6.262 -6.546,-9.255 1.972,-1.124 4.248,-2.226 5.878,-3.168 0.386,-0.18 1.184,-0.616 1.184,-0.616 z"
       id="path70"
       inkscape:connector-curvature="0"
       style="clip-rule:evenodd;fill-rule:evenodd" /><path
       d="m 171.775,248.824 c 1.92,2.937 3.651,5.908 5.39,8.973 l 0.131,0.232 c -2.175,1.021 -4.269,2.349 -6.444,3.371 -0.717,-0.97 -4.167,-6.747 -6.291,-10.176 0,0 2.407,-1.254 2.529,-1.377 l 3.357,-1.66 0.687,-0.362 z"
       id="path72"
       inkscape:connector-curvature="0"
       style="clip-rule:evenodd;fill-rule:evenodd" /><path
       d="m 263.696,234.704 c -0.022,3.075 -0.407,8.822 -0.407,8.822 0,0 -6.037,-0.073 -6.312,-0.151 l 0.151,-9.053 c 0.203,-0.023 6.11,0.282 6.568,0.382 z"
       id="path74"
       inkscape:connector-curvature="0"
       style="clip-rule:evenodd;fill-rule:evenodd" /><path
       d="m 276.175,235.401 -0.79,8.61 c -1.05,-0.051 -6.368,-0.376 -6.368,-0.376 -0.025,-0.16 0.23,-5.705 0.513,-8.668 z"
       id="path76"
       inkscape:connector-curvature="0"
       style="clip-rule:evenodd;fill-rule:evenodd" /><path
       d="m 263.186,256.543 -0.027,8.749 -5.856,0.123 c 0,0 -0.253,-7.386 -0.203,-8.821 z"
       id="path78"
       inkscape:connector-curvature="0"
       style="clip-rule:evenodd;fill-rule:evenodd" /><path
       d="m 274.923,256.574 -0.565,8.893 c -1.964,-0.224 -4.061,-0.022 -5.961,-0.204 l 0.264,-8.849 c 0.432,-0.204 6.262,0.16 6.262,0.16 z"
       id="path80"
       inkscape:connector-curvature="0"
       style="clip-rule:evenodd;fill-rule:evenodd" /><path
       d="m 186.015,273.447 c 1.609,2.993 3.168,5.472 4.705,8.568 -2.094,0.993 -3.653,1.942 -5.393,2.964 -0.129,0.151 -0.435,0.355 -0.667,0.384 0,0 -0.819,-1.558 -0.949,-1.74 -1.407,-2.404 -3.754,-6.493 -4.24,-7.261 l -0.791,-1.305 3.421,-1.864 2.741,-1.587 z"
       id="path82"
       inkscape:connector-curvature="0"
       style="clip-rule:evenodd;fill-rule:evenodd" /><polygon
       points="196.96,191.723 193.351,181.192 186.705,183.208 190.568,193.564 "
       id="polygon84"
       style="clip-rule:evenodd;fill-rule:evenodd" /><polygon
       points="206.216,177.561 209.514,188.122 202.585,190.137 199.056,179.684 "
       id="polygon86"
       style="clip-rule:evenodd;fill-rule:evenodd" /><polygon
       points="202.151,207.3 205.042,216.375 199.237,218.012 195.99,209.033 "
       id="polygon88"
       style="clip-rule:evenodd;fill-rule:evenodd" /><polygon
       points="213.965,203.842 216.495,213.15 210.306,214.867 207.522,205.735 "
       id="polygon90"
       style="clip-rule:evenodd;fill-rule:evenodd" /><polygon
       points="223.402,239.104 218.206,240.438 215.675,232.125 221.077,230.537 "
       id="polygon92"
       style="clip-rule:evenodd;fill-rule:evenodd" /><polygon
       points="205.166,234.967 210.487,233.4 213.168,241.815 207.905,243.323 "
       id="polygon94"
       style="clip-rule:evenodd;fill-rule:evenodd" /><polygon
       points="216.264,268.866 220.917,267.64 218.82,260.559 214.089,261.734 "
       id="polygon96"
       style="clip-rule:evenodd;fill-rule:evenodd" /><polygon
       points="229.998,265.517 228.179,258.204 223.453,259.458 225.417,266.488 "
       id="polygon98"
       style="clip-rule:evenodd;fill-rule:evenodd" /><polygon
       points="264.746,214.201 264.079,223.354 257.281,223.224 257.818,213.714 "
       id="polygon100"
       style="clip-rule:evenodd;fill-rule:evenodd" /><polygon
       points="278.526,215.25 277.349,224.428 270.241,223.688 271.161,214.504 "
       id="polygon102"
       style="clip-rule:evenodd;fill-rule:evenodd" /><polygon
       points="266.769,194.252 265.434,204.075 258.301,203.539 259.405,193.564 "
       id="polygon104"
       style="clip-rule:evenodd;fill-rule:evenodd" /><polygon
       points="281.902,195.819 280.112,205.662 272.21,204.611 273.516,194.948 "
       id="polygon106"
       style="clip-rule:evenodd;fill-rule:evenodd" /><path
       d="m 403.388,262.604 c 1.246,0.637 2.659,0.97 3.835,1.891 0.232,0.283 0.792,1.153 0.558,0.768 0.18,0.617 0.335,1.154 0.234,1.74 -0.234,0.536 -0.943,0.738 -1.408,0.615 -13.678,-4.832 -27.514,-6.493 -41.99,-7.261 -1.812,-1.051 -3.167,-2.255 -4.521,-3.581 -0.152,-0.333 -0.203,-0.667 0.202,-0.819 14.909,-0.028 29.204,1.79 43.09,6.647 z"
       id="path108"
       inkscape:connector-curvature="0"
       style="clip-rule:evenodd;fill:#ffffff;fill-rule:evenodd" /><path
       d="m 90.413,310.217 c -0.869,1.971 -1.204,3.833 -2.689,5.241 -0.586,0.564 -1.506,0.999 -2.144,1.383 -11.352,5.748 -21.84,12.629 -32.118,20.04 -0.565,0.285 -0.667,0.184 -1.022,-0.102 -0.435,-0.436 -0.615,-0.815 -0.615,-1.353 -0.022,-0.822 0.514,-1.612 0.615,-1.992 1.254,-1.461 2.125,-2.251 3.682,-3.688 2.894,-2.63 7.72,-6.007 11.764,-8.562 7.053,-4.454 16.438,-9.643 21.526,-11.657 0.408,-0.131 0.871,0.356 1.001,0.69 z"
       id="path110"
       inkscape:connector-curvature="0"
       style="clip-rule:evenodd;fill:#ffffff;fill-rule:evenodd" /></g></svg>