<?xml version="1.0" encoding="UTF-8" standalone="no"?>
<!-- Generator: Adobe Illustrator 21.0.0, SVG Export Plug-In . SVG Version: 6.00 Build 0)  -->

<svg
   xmlns:dc="http://purl.org/dc/elements/1.1/"
   xmlns:cc="http://creativecommons.org/ns#"
   xmlns:rdf="http://www.w3.org/1999/02/22-rdf-syntax-ns#"
   xmlns:svg="http://www.w3.org/2000/svg"
   xmlns="http://www.w3.org/2000/svg"
   xmlns:sodipodi="http://sodipodi.sourceforge.net/DTD/sodipodi-0.dtd"
   xmlns:inkscape="http://www.inkscape.org/namespaces/inkscape"
   version="1.1"
   id="Layer_1"
   x="0px"
   y="0px"
   viewBox="0 0 25.1 25.1"
   xml:space="preserve"
   sodipodi:docname="itunes.svg"
   width="25.1"
   height="25.1"
   inkscape:version="0.92.2 (5c3e80d, 2017-08-06)"><metadata
     id="metadata237"><rdf:RDF><cc:Work
         rdf:about=""><dc:format>image/svg+xml</dc:format><dc:type
           rdf:resource="http://purl.org/dc/dcmitype/StillImage" /><dc:title></dc:title></cc:Work></rdf:RDF></metadata><defs
     id="defs235" /><sodipodi:namedview
     pagecolor="#ffffff"
     bordercolor="#000000"
     borderopacity="0.25"
     objecttolerance="10"
     gridtolerance="10"
     guidetolerance="10"
     inkscape:pageopacity="0"
     inkscape:pageshadow="2"
     inkscape:window-width="1357"
     inkscape:window-height="756"
     id="namedview233"
     showgrid="false"
     fit-margin-top="0"
     fit-margin-left="0"
     fit-margin-right="0"
     fit-margin-bottom="0"
     inkscape:zoom="2.4"
     inkscape:cx="61.5"
     inkscape:cy="12.55"
     inkscape:window-x="0"
     inkscape:window-y="0"
     inkscape:window-maximized="0"
     inkscape:current-layer="Layer_1" /><style
     type="text/css"
     id="style2">
	.st0{filter:url(#Adobe_OpacityMaskFilter);}
	.st1{fill:#FFFFFF;}
	.st2{mask:url(#mask-2_2_);}
	.st3{filter:url(#Adobe_OpacityMaskFilter_1_);}
	.st4{mask:url(#mask-4_2_);fill:url(#Rectangle-path_6_);}
	.st5{filter:url(#Adobe_OpacityMaskFilter_2_);}
	.st6{mask:url(#mask-12_1_);}
	.st7{filter:url(#Adobe_OpacityMaskFilter_3_);}
	.st8{mask:url(#mask-14_1_);fill:url(#Rectangle-path_7_);}
	.st9{filter:url(#Adobe_OpacityMaskFilter_4_);}
	.st10{mask:url(#mask-17_1_);}
	.st11{filter:url(#Adobe_OpacityMaskFilter_5_);}
	.st12{mask:url(#mask-19_1_);fill:url(#Rectangle-path_8_);}
	.st13{filter:url(#Adobe_OpacityMaskFilter_6_);}
	.st14{mask:url(#mask-22_1_);}
	.st15{filter:url(#Adobe_OpacityMaskFilter_7_);}
	.st16{mask:url(#mask-24_1_);fill:url(#Rectangle-path_9_);}
	.st17{filter:url(#Adobe_OpacityMaskFilter_8_);}
	.st18{mask:url(#mask-27_1_);}
	.st19{filter:url(#Adobe_OpacityMaskFilter_9_);}
	.st20{mask:url(#mask-29_1_);fill:url(#Rectangle-path_10_);}
	.st21{filter:url(#Adobe_OpacityMaskFilter_10_);}
	.st22{mask:url(#mask-32_1_);fill:#FFFFFF;}
	.st23{filter:url(#Adobe_OpacityMaskFilter_11_);}
	.st24{mask:url(#mask-7_1_);}
	.st25{filter:url(#Adobe_OpacityMaskFilter_12_);}
	.st26{mask:url(#mask-9_1_);fill:url(#Rectangle-path_11_);}
</style><g
     id="Clipped"
     transform="translate(-1,-0.2)"><defs
       id="defs7"><filter
         height="25.1"
         width="25.1"
         y="0.2"
         x="1"
         filterUnits="userSpaceOnUse"
         id="Adobe_OpacityMaskFilter"><feColorMatrix
           id="feColorMatrix4"
           values="1 0 0 0 0  0 1 0 0 0  0 0 1 0 0  0 0 0 1 0"
           type="matrix" /></filter></defs><mask
       id="mask-2_2_"
       height="25.1"
       width="25.1"
       y="0.2"
       x="1"
       maskUnits="userSpaceOnUse"><g
         style="filter:url(#Adobe_OpacityMaskFilter)"
         id="g10"
         class="st0"><rect
           style="fill:#ffffff"
           height="25.1"
           width="25.1"
           class="st1"
           y="0.2"
           x="1"
           id="path-1_2_" /></g></mask><g
       id="g28"
       mask="url(#mask-2_2_)"
       class="st2"><defs
         id="defs16"><filter
           height="25.1"
           width="25.1"
           y="0.2"
           x="1"
           filterUnits="userSpaceOnUse"
           id="Adobe_OpacityMaskFilter_1_"><feColorMatrix
             id="feColorMatrix13"
             values="1 0 0 0 0  0 1 0 0 0  0 0 1 0 0  0 0 0 1 0"
             type="matrix" /></filter></defs><mask
         id="mask-4_2_"
         height="25.1"
         width="25.1"
         y="0.2"
         x="1"
         maskUnits="userSpaceOnUse"><g
           style="filter:url(#Adobe_OpacityMaskFilter_1_)"
           id="g19"
           class="st3"><path
             style="fill:#ffffff"
             inkscape:connector-curvature="0"
             d="m 8.7,0.2 c -0.3,0 -0.5,0 -0.7,0 -0.3,0 -0.5,0 -0.8,0 -0.6,0 -1.1,0 -1.7,0.1 C 5,0.4 4.5,0.6 4,0.9 3.5,1.1 3,1.4 2.6,1.8 2.2,2.2 1.9,2.6 1.6,3.1 1.3,3.6 1.2,4.1 1.1,4.7 1,5.3 1,5.8 1,6.4 1,6.7 1,6.9 1,7.2 1,7.4 1,7.7 1,7.9 v 0.1 9.4 0.2 c 0,0.2 0,0.5 0,0.7 0,0.3 0,0.5 0,0.8 0,0.6 0,1.1 0.1,1.7 0.1,0.6 0.3,1.1 0.5,1.6 0.3,0.5 0.6,0.9 1,1.3 0.4,0.4 0.8,0.7 1.3,1 0.5,0.3 1,0.4 1.6,0.5 0.5,0.1 1.1,0.1 1.7,0.1 0.3,0 0.5,0 0.8,0 0.3,0 0.5,0 0.7,0 h 0.2 9.4 0.2 c 0.3,0 0.5,0 0.7,0 0.3,0 0.5,0 0.8,0 0.6,0 1.1,0 1.7,-0.1 0.6,-0.1 1.1,-0.3 1.6,-0.5 0.5,-0.3 0.9,-0.6 1.3,-1 0.4,-0.4 0.7,-0.8 1,-1.3 0.3,-0.5 0.4,-1 0.5,-1.6 0.1,-0.5 0.1,-1.1 0.1,-1.7 0,-0.3 0,-0.5 0,-0.8 0,-0.2 0,-0.5 0,-0.7 V 7.9 c 0,-0.2 0,-0.5 0,-0.7 0,-0.3 0,-0.5 0,-0.8 0,-0.6 0,-1.1 -0.1,-1.7 C 26,4.1 25.8,3.6 25.6,3.1 25.3,2.6 25,2.2 24.6,1.8 24.2,1.4 23.8,1.1 23.3,0.8 22.8,0.5 22.3,0.4 21.7,0.3 21.2,0.2 20.6,0.2 20,0.2 c -0.3,0 -0.5,0 -0.8,0 -0.3,0 -0.5,0 -0.7,0 z"
             class="st1"
             id="path-3_2_" /></g></mask><linearGradient
         gradientTransform="matrix(25.164,0,0,25.164,20370.252,-12644.62)"
         y2="503.4942"
         x2="-808.96167"
         y1="502.49561"
         x1="-808.96167"
         gradientUnits="userSpaceOnUse"
         id="Rectangle-path_6_"><stop
           id="stop22"
           style="stop-color:#EF4DB7"
           offset="0" /><stop
           id="stop24"
           style="stop-color:#C643FD"
           offset="1" /></linearGradient><rect
         style="fill:url(#Rectangle-path_6_)"
         mask="url(#mask-4_2_)"
         height="25.1"
         width="25.1"
         class="st4"
         y="0.2"
         x="1"
         id="Rectangle-path" /></g></g><g
     id="Group_2_"
     transform="translate(-1,-0.2)"><g
       id="Clipped_2_"><defs
         id="defs35"><filter
           height="6.6999998"
           width="5.9000001"
           y="14.4"
           x="13.5"
           filterUnits="userSpaceOnUse"
           id="Adobe_OpacityMaskFilter_2_"><feColorMatrix
             id="feColorMatrix32"
             values="1 0 0 0 0  0 1 0 0 0  0 0 1 0 0  0 0 0 1 0"
             type="matrix" /></filter></defs><mask
         id="mask-12_1_"
         height="6.7"
         width="5.9"
         y="14.4"
         x="13.5"
         maskUnits="userSpaceOnUse"><g
           style="filter:url(#Adobe_OpacityMaskFilter_2_)"
           id="g38"
           class="st5"><rect
             style="fill:#ffffff"
             height="25.1"
             width="25.1"
             class="st1"
             y="0.2"
             x="1"
             id="path-11_1_" /></g></mask><g
         id="g68"
         mask="url(#mask-12_1_)"
         class="st6"><g
           id="g66"
           transform="translate(12,14)"><defs
             id="defs44"><filter
               height="6.6999998"
               width="5.9000001"
               y="0.40000001"
               x="1.5"
               filterUnits="userSpaceOnUse"
               id="Adobe_OpacityMaskFilter_3_"><feColorMatrix
                 id="feColorMatrix41"
                 values="1 0 0 0 0  0 1 0 0 0  0 0 1 0 0  0 0 0 1 0"
                 type="matrix" /></filter></defs><mask
             id="mask-14_1_"
             height="6.7"
             width="5.9"
             y="0.4"
             x="1.5"
             maskUnits="userSpaceOnUse"><g
               style="filter:url(#Adobe_OpacityMaskFilter_3_)"
               id="g47"
               class="st7"><path
                 style="fill:#ffffff"
                 inkscape:connector-curvature="0"
                 d="m 1.5,3.2 4.4,3.2 c 0.2,0.2 0.5,0.3 0.7,0.5 0.1,0 0.2,0.1 0.3,0.1 0,0 0,0 0,0 0.1,0 0.1,0 0.2,0 0.1,0 0.1,0 0.2,0 0,0 0.1,-0.1 0.1,-0.1 0,-0.1 0,-0.1 0,-0.2 0,0 0,0 0,0 0,-0.1 0,-0.2 0,-0.3 C 7.3,6.1 7.2,5.8 7.1,5.5 L 5.4,0.4 Z"
                 class="st1"
                 id="path-13_1_" /></g></mask><radialGradient
             gradientUnits="userSpaceOnUse"
             gradientTransform="matrix(5.882,0,0,5.882,4257.271,-3870.7549)"
             r="0.0044297031"
             cy="658.61188"
             cx="-725.55872"
             id="Rectangle-path_7_"><stop
               id="stop50"
               style="stop-color:#F9E3FB"
               offset="0" /><stop
               id="stop52"
               style="stop-color:#F9E3FB"
               offset="0.7459" /><stop
               id="stop54"
               style="stop-color:#F8DEFB"
               offset="0.8097" /><stop
               id="stop56"
               style="stop-color:#F3D0FA"
               offset="0.8826" /><stop
               id="stop58"
               style="stop-color:#ECBAF9"
               offset="0.9599" /><stop
               id="stop60"
               style="stop-color:#EAB2F9"
               offset="0.981" /><stop
               id="stop62"
               style="stop-color:#EAB2F9"
               offset="1" /></radialGradient><rect
             style="fill:url(#Rectangle-path_7_)"
             mask="url(#mask-14_1_)"
             height="6.6999998"
             width="5.9000001"
             class="st8"
             y="0.40000001"
             x="1.5"
             id="Rectangle-path_2_" /></g></g></g><g
       id="Clipped_3_"><defs
         id="defs74"><filter
           height="4.5999999"
           width="6.9000001"
           y="9.8000002"
           x="4.1999998"
           filterUnits="userSpaceOnUse"
           id="Adobe_OpacityMaskFilter_4_"><feColorMatrix
             id="feColorMatrix71"
             values="1 0 0 0 0  0 1 0 0 0  0 0 1 0 0  0 0 0 1 0"
             type="matrix" /></filter></defs><mask
         id="mask-17_1_"
         height="4.6"
         width="6.9"
         y="9.8"
         x="4.2"
         maskUnits="userSpaceOnUse"><g
           style="filter:url(#Adobe_OpacityMaskFilter_4_)"
           id="g77"
           class="st9"><rect
             style="fill:#ffffff"
             height="25.1"
             width="25.1"
             class="st1"
             y="0.2"
             x="1"
             id="path-16_1_" /></g></mask><g
         id="g101"
         mask="url(#mask-17_1_)"
         class="st10"><g
           id="g99"
           transform="translate(3,9)"><defs
             id="defs83"><filter
               height="4.5999999"
               width="6.9000001"
               y="0.80000001"
               x="1.2"
               filterUnits="userSpaceOnUse"
               id="Adobe_OpacityMaskFilter_5_"><feColorMatrix
                 id="feColorMatrix80"
                 values="1 0 0 0 0  0 1 0 0 0  0 0 1 0 0  0 0 0 1 0"
                 type="matrix" /></filter></defs><mask
             id="mask-19_1_"
             height="4.6"
             width="6.9"
             y="0.8"
             x="1.2"
             maskUnits="userSpaceOnUse"><g
               style="filter:url(#Adobe_OpacityMaskFilter_5_)"
               id="g86"
               class="st11"><path
                 style="fill:#ffffff"
                 inkscape:connector-curvature="0"
                 d="m 2.7,0.8 c -0.3,0 -0.6,0 -0.9,0 -0.1,0 -0.2,0 -0.3,0.1 0,0 0,0 0,0 C 1.4,0.9 1.4,1 1.3,1 c 0,0 -0.1,0.1 -0.1,0.1 0,0 0,0.1 0,0.2 0,0.1 0,0.1 0.1,0.2 0,0 0,0 0,0 C 1.4,1.6 1.4,1.6 1.5,1.7 1.8,1.8 2,2 2.2,2.2 L 6.6,5.4 8.1,0.8 Z"
                 class="st1"
                 id="path-18_1_" /></g></mask><radialGradient
             gradientUnits="userSpaceOnUse"
             gradientTransform="matrix(4.599,0,0,4.599,3057.7996,-3286.936)"
             r="0.0057093948"
             cy="712.78308"
             cx="-667.22247"
             id="Rectangle-path_8_"><stop
               id="stop89"
               style="stop-color:#FAE1F8"
               offset="0" /><stop
               id="stop91"
               style="stop-color:#FAE1F8"
               offset="0.6" /><stop
               id="stop93"
               style="stop-color:#F7D6F7"
               offset="0.85" /><stop
               id="stop95"
               style="stop-color:#F7D6F7"
               offset="1" /></radialGradient><rect
             style="fill:url(#Rectangle-path_8_)"
             mask="url(#mask-19_1_)"
             height="4.5999999"
             width="6.9000001"
             class="st12"
             y="0.80000001"
             x="1.2"
             id="Rectangle-path_3_" /></g></g></g><g
       id="Clipped_4_"><defs
         id="defs107"><filter
           height="6.6999998"
           width="5.9000001"
           y="14.4"
           x="7.6999998"
           filterUnits="userSpaceOnUse"
           id="Adobe_OpacityMaskFilter_6_"><feColorMatrix
             id="feColorMatrix104"
             values="1 0 0 0 0  0 1 0 0 0  0 0 1 0 0  0 0 0 1 0"
             type="matrix" /></filter></defs><mask
         id="mask-22_1_"
         height="6.7"
         width="5.9"
         y="14.4"
         x="7.7"
         maskUnits="userSpaceOnUse"><g
           style="filter:url(#Adobe_OpacityMaskFilter_6_)"
           id="g110"
           class="st13"><rect
             style="fill:#ffffff"
             height="25.1"
             width="25.1"
             class="st1"
             y="0.2"
             x="1"
             id="path-21_1_" /></g></mask><g
         id="g136"
         mask="url(#mask-22_1_)"
         class="st14"><g
           id="g134"
           transform="translate(6,14)"><defs
             id="defs116"><filter
               height="6.6999998"
               width="5.9000001"
               y="0.40000001"
               x="1.7"
               filterUnits="userSpaceOnUse"
               id="Adobe_OpacityMaskFilter_7_"><feColorMatrix
                 id="feColorMatrix113"
                 values="1 0 0 0 0  0 1 0 0 0  0 0 1 0 0  0 0 0 1 0"
                 type="matrix" /></filter></defs><mask
             id="mask-24_1_"
             height="6.7"
             width="5.9"
             y="0.4"
             x="1.7"
             maskUnits="userSpaceOnUse"><g
               style="filter:url(#Adobe_OpacityMaskFilter_7_)"
               id="g119"
               class="st15"><path
                 style="fill:#ffffff"
                 inkscape:connector-curvature="0"
                 d="m 1.9,5.5 c 0,0.3 -0.1,0.6 -0.2,0.9 0,0.1 0,0.2 0,0.3 0,0 0,0 0,0 0,0.1 0,0.1 0,0.2 0,0 0.1,0.1 0.1,0.1 0,0 0.1,0 0.1,0.1 0.1,0 0.1,0 0.2,0 0,0 0,0 0,0 C 2.2,7.1 2.3,7 2.4,7 2.6,6.8 2.9,6.7 3.1,6.5 L 7.5,3.3 5.1,1.4 3.7,0.4 Z"
                 class="st1"
                 id="path-23_1_" /></g></mask><radialGradient
             gradientUnits="userSpaceOnUse"
             gradientTransform="matrix(5.882,0,0,5.882,4186.8052,-3869.5693)"
             r="0.0044297031"
             cy="660.05713"
             cx="-709.27838"
             id="Rectangle-path_9_"><stop
               id="stop122"
               style="stop-color:#FAE9FC"
               offset="0" /><stop
               id="stop124"
               style="stop-color:#FAE9FC"
               offset="0.669" /><stop
               id="stop126"
               style="stop-color:#F8DEFA"
               offset="0.8118" /><stop
               id="stop128"
               style="stop-color:#F6D4F8"
               offset="0.91" /><stop
               id="stop130"
               style="stop-color:#F6D4F8"
               offset="1" /></radialGradient><rect
             style="fill:url(#Rectangle-path_9_)"
             mask="url(#mask-24_1_)"
             height="6.6999998"
             width="5.9000001"
             class="st16"
             y="0.40000001"
             x="1.7"
             id="Rectangle-path_4_" /></g></g></g><g
       id="Clipped_5_"><defs
         id="defs142"><filter
           height="4.5999999"
           width="6.9000001"
           y="9.8000002"
           x="15.9"
           filterUnits="userSpaceOnUse"
           id="Adobe_OpacityMaskFilter_8_"><feColorMatrix
             id="feColorMatrix139"
             values="1 0 0 0 0  0 1 0 0 0  0 0 1 0 0  0 0 0 1 0"
             type="matrix" /></filter></defs><mask
         id="mask-27_1_"
         height="4.6"
         width="6.9"
         y="9.8"
         x="15.9"
         maskUnits="userSpaceOnUse"><g
           style="filter:url(#Adobe_OpacityMaskFilter_8_)"
           id="g145"
           class="st17"><rect
             style="fill:#ffffff"
             height="25.1"
             width="25.1"
             class="st1"
             y="0.2"
             x="1"
             id="path-26_1_" /></g></mask><g
         id="g171"
         mask="url(#mask-27_1_)"
         class="st18"><g
           id="g169"
           transform="translate(14,9)"><defs
             id="defs151"><filter
               height="4.5999999"
               width="6.9000001"
               y="0.80000001"
               x="1.9"
               filterUnits="userSpaceOnUse"
               id="Adobe_OpacityMaskFilter_9_"><feColorMatrix
                 id="feColorMatrix148"
                 values="1 0 0 0 0  0 1 0 0 0  0 0 1 0 0  0 0 0 1 0"
                 type="matrix" /></filter></defs><mask
             id="mask-29_1_"
             height="4.6"
             width="6.9"
             y="0.8"
             x="1.9"
             maskUnits="userSpaceOnUse"><g
               style="filter:url(#Adobe_OpacityMaskFilter_9_)"
               id="g154"
               class="st19"><path
                 style="fill:#ffffff"
                 inkscape:connector-curvature="0"
                 d="M 1.9,0.8 3.4,5.4 7.8,2.2 C 8.1,2 8.3,1.8 8.5,1.6 8.6,1.5 8.6,1.5 8.7,1.4 c 0,0 0,0 0,0 0,-0.1 0.1,-0.1 0.1,-0.2 0,-0.1 0,-0.1 0,-0.2 0,0 0,-0.1 -0.1,-0.1 0,0 -0.1,-0.1 -0.2,-0.1 0,0 0,0 0,0 -0.1,0 -0.2,0 -0.3,0 -0.3,0 -0.6,0 -0.9,0 z"
                 class="st1"
                 id="path-28_1_" /></g></mask><radialGradient
             gradientUnits="userSpaceOnUse"
             gradientTransform="matrix(4.599,0,0,4.599,3165.3547,-3286.937)"
             r="0.0057093948"
             cy="718.59589"
             cx="-686.78552"
             id="Rectangle-path_10_"><stop
               id="stop157"
               style="stop-color:#FAE9FB"
               offset="0" /><stop
               id="stop159"
               style="stop-color:#FAE9FB"
               offset="0.68" /><stop
               id="stop161"
               style="stop-color:#F8DEF8"
               offset="0.8132" /><stop
               id="stop163"
               style="stop-color:#F5CAF2"
               offset="0.98" /><stop
               id="stop165"
               style="stop-color:#F5CAF2"
               offset="1" /></radialGradient><rect
             style="fill:url(#Rectangle-path_10_)"
             mask="url(#mask-29_1_)"
             height="4.5999999"
             width="6.9000001"
             class="st20"
             y="0.80000001"
             x="1.9"
             id="Rectangle-path_5_" /></g></g></g><g
       id="Clipped_6_"><defs
         id="defs177"><filter
           height="7.4000001"
           width="7.8000002"
           y="9.8000002"
           x="9.6000004"
           filterUnits="userSpaceOnUse"
           id="Adobe_OpacityMaskFilter_10_"><feColorMatrix
             id="feColorMatrix174"
             values="1 0 0 0 0  0 1 0 0 0  0 0 1 0 0  0 0 0 1 0"
             type="matrix" /></filter></defs><mask
         id="mask-32_1_"
         height="7.4"
         width="7.8"
         y="9.8"
         x="9.6"
         maskUnits="userSpaceOnUse"><g
           style="filter:url(#Adobe_OpacityMaskFilter_10_)"
           id="g180"
           class="st21"><rect
             style="fill:#ffffff"
             height="25.1"
             width="25.1"
             class="st1"
             y="0.2"
             x="1"
             id="path-31_1_" /></g></mask><polygon
         style="fill:#ffffff"
         mask="url(#mask-32_1_)"
         points="11.1,9.8 9.6,14.4 11.1,15.4 13.5,17.2 17.4,14.4 15.9,9.8 "
         class="st22"
         id="Shape_2_" /></g></g><g
     id="Clipped_1_"
     transform="translate(-1,-0.2)"><defs
       id="defs193"><filter
         id="Adobe_OpacityMaskFilter_11_"
         filterUnits="userSpaceOnUse"
         x="11.1"
         y="3.3"
         width="4.8000002"
         height="6.4000001"><feColorMatrix
           type="matrix"
           values="1 0 0 0 0  0 1 0 0 0  0 0 1 0 0  0 0 0 1 0"
           id="feColorMatrix190" /></filter></defs><mask
       maskUnits="userSpaceOnUse"
       x="11.1"
       y="3.3"
       width="4.8"
       height="6.4"
       id="mask-7_1_"><g
         class="st23"
         id="g196"
         style="filter:url(#Adobe_OpacityMaskFilter_11_)"><rect
           id="path-6_1_"
           x="1"
           y="0.2"
           class="st1"
           width="25.1"
           height="25.1"
           style="fill:#ffffff" /></g></mask><g
       class="st24"
       mask="url(#mask-7_1_)"
       id="g226"><g
         transform="translate(10,3)"
         id="g224"><defs
           id="defs202"><filter
             id="Adobe_OpacityMaskFilter_12_"
             filterUnits="userSpaceOnUse"
             x="1.1"
             y="0.30000001"
             width="4.8000002"
             height="6.4000001"><feColorMatrix
               type="matrix"
               values="1 0 0 0 0  0 1 0 0 0  0 0 1 0 0  0 0 0 1 0"
               id="feColorMatrix199" /></filter></defs><mask
           maskUnits="userSpaceOnUse"
           x="1.1"
           y="0.3"
           width="4.8"
           height="6.4"
           id="mask-9_1_"><g
             class="st25"
             id="g205"
             style="filter:url(#Adobe_OpacityMaskFilter_12_)"><path
               id="path-8_1_"
               class="st1"
               d="m 3.4,0.4 c -0.1,0 -0.1,0.1 -0.1,0.1 0,0 0,0 0,0 C 3.2,0.6 3.1,0.7 3.1,0.8 3,1.1 2.9,1.3 2.8,1.6 L 1.1,6.8 H 6 L 4.3,1.6 C 4.2,1.3 4.1,1.1 4,0.8 4,0.7 3.9,0.6 3.9,0.5 c 0,0 0,0 0,0 0,-0.1 -0.1,-0.1 -0.1,-0.1 0,0 -0.1,0 -0.2,0 -0.1,0 -0.2,-0.1 -0.2,0"
               inkscape:connector-curvature="0"
               style="fill:#ffffff" /></g></mask><radialGradient
           id="Rectangle-path_11_"
           cx="-690.46582"
           cy="704.28882"
           r="0.0054140808"
           gradientTransform="matrix(4.836,0,0,4.836,3330.627,-3391.7415)"
           gradientUnits="userSpaceOnUse"><stop
             offset="0"
             style="stop-color:#FBE3F8"
             id="stop208" /><stop
             offset="0.745"
             style="stop-color:#FBE3F8"
             id="stop210" /><stop
             offset="0.8082"
             style="stop-color:#FADEF6"
             id="stop212" /><stop
             offset="0.8798"
             style="stop-color:#F9D1F0"
             id="stop214" /><stop
             offset="0.9554"
             style="stop-color:#F6BAE7"
             id="stop216" /><stop
             offset="0.98"
             style="stop-color:#F5B1E3"
             id="stop218" /><stop
             offset="1"
             style="stop-color:#F5B1E3"
             id="stop220" /></radialGradient><rect
           id="Rectangle-path_1_"
           x="1.1"
           y="0.30000001"
           class="st26"
           width="4.8000002"
           height="6.4000001"
           mask="url(#mask-9_1_)"
           style="fill:url(#Rectangle-path_11_)" /></g></g></g></svg>