<?xml version="1.0" encoding="UTF-8" standalone="no"?>
<!-- Created with Inkscape (http://www.inkscape.org/) -->

<svg
   xmlns:dc="http://purl.org/dc/elements/1.1/"
   xmlns:cc="http://creativecommons.org/ns#"
   xmlns:rdf="http://www.w3.org/1999/02/22-rdf-syntax-ns#"
   xmlns:svg="http://www.w3.org/2000/svg"
   xmlns="http://www.w3.org/2000/svg"
   xmlns:sodipodi="http://sodipodi.sourceforge.net/DTD/sodipodi-0.dtd"
   xmlns:inkscape="http://www.inkscape.org/namespaces/inkscape"
   width="394"
   height="394"
   id="svg2"
   sodipodi:version="0.32"
   inkscape:version="0.92.2 (5c3e80d, 2017-08-06)"
   version="1.0"
   inkscape:output_extension="org.inkscape.output.svg.inkscape"
   sodipodi:docname="scifi_channel.svg">
  <metadata
     id="metadata27">
    <rdf:RDF>
      <cc:Work
         rdf:about="">
        <dc:format>image/svg+xml</dc:format>
        <dc:type
           rdf:resource="http://purl.org/dc/dcmitype/StillImage" />
        <dc:title></dc:title>
      </cc:Work>
    </rdf:RDF>
  </metadata>
  <defs
     id="defs25" />
  <sodipodi:namedview
     pagecolor="#ffffff"
     bordercolor="#666666"
     borderopacity="1"
     objecttolerance="10"
     gridtolerance="10"
     guidetolerance="10"
     inkscape:pageopacity="0"
     inkscape:pageshadow="2"
     inkscape:window-width="1920"
     inkscape:window-height="1009"
     id="namedview23"
     showgrid="false"
     inkscape:zoom="0.79949239"
     inkscape:cx="-51.907935"
     inkscape:cy="121"
     inkscape:window-x="-8"
     inkscape:window-y="-8"
     inkscape:window-maximized="1"
     inkscape:current-layer="layer1" />
  <g
     inkscape:label="Layer 1"
     inkscape:groupmode="layer"
     id="layer1"
     transform="translate(-86.687644,0.16997)">
    <g
       id="g848"
       transform="translate(3.3959218e-6,-76.003992)">
      <path
         inkscape:connector-curvature="0"
         id="path3036"
         d="m 417.98648,156.92826 c -21.6529,3.22382 -73.39295,23.91676 -75.46173,24.25558 -41.72472,-23.92188 -77.09421,-19.58927 -103.56743,-7.31517 -38.11072,17.32541 -65.8365,56.98131 -63.91145,103.18239 -12.3203,8.4702 -23.48555,18.48041 -35.03582,28.10563 -104.383631,94.18346 -33.39825,98.03355 25.79558,80.4669 107.41751,-34.26582 205.20978,-90.86212 283.75159,-164.01381 29.312,-26.80689 64.20408,-87.68452 -31.57074,-64.68152 z m -231.23122,210.0301 c -40.20008,8.31617 -77.73587,-4.67659 -32.4999,-59.87662 7.31519,-8.08516 13.47531,-14.24531 20.79051,-20.79048 4.23507,30.03072 20.02559,55.8263 41.58095,73.1517 -9.51741,3.76282 -19.54819,6.00102 -29.87156,7.5154 z M 421.45158,229.69497 c -8.85007,9.62522 -18.47529,22.3305 -28.10052,29.64567 -3.7577,-25.79558 -17.71556,-52.74621 -41.5861,-73.1517 52.02752,-16.17036 111.46266,-13.52663 69.68662,43.50603"
         style="fill:#001842;fill-opacity:1;fill-rule:nonzero;stroke:none" />
      <path
         inkscape:connector-curvature="0"
         id="path3038"
         d="m 268.60302,214.6796 c -0.37986,7.31519 -0.0462,22.33053 -0.0462,22.33053 h -1.49384 c -0.76488,-8.47021 -3.46507,-15.40035 -9.62522,-20.02047 -5.00513,-1.54003 -6.54001,1.54003 -8.85522,5.00513 -4.3275,21.17549 -5.29258,51.97621 0,68.81905 7.22277,6.25769 12.75662,1.68377 16.5554,-6.44762 2.31006,-4.23511 1.54003,-10.39522 4.2351,-13.47531 v 23.48555 c -3.07494,0.38501 -1.14989,-4.23511 -4.99998,-2.69508 -4.62524,3.46511 -10.78539,5.39015 -17.3254,3.85009 -17.71557,-6.40139 -27.8182,-59.34268 1.92504,-79.31181 7.31002,-3.13141 11.40138,-1.20636 15.40036,1.92504 1.92504,-0.77003 1.92504,-3.85009 4.22995,-3.4651"
         style="fill:#ffffff;fill-rule:nonzero;stroke:none" />
      <path
         inkscape:connector-curvature="0"
         id="path3040"
         d="m 296.80621,293.7707 v -2.4743 c -1.54003,-0.38502 -4.23511,1.01128 -4.23511,-1.6838 v -69.78413 c 1.01131,-2.64888 3.22383,-1.82751 4.37884,-1.82751 v -1.89938 c -3.31622,0.1849 -19.78432,0.1849 -23.10053,0 v 1.89938 c 1.15504,0 3.36756,-0.82137 4.37884,1.82751 v 69.78413 c 0,2.69508 -2.69508,1.29878 -4.22996,1.6838 v 2.4743 h 22.80792"
         style="fill:#ffffff;fill-rule:nonzero;stroke:none" />
      <path
         inkscape:connector-curvature="0"
         id="path3042"
         d="m 328.47449,258.37556 c 3.46508,0.38501 7.12523,2.12012 8.27513,5.5852 0.77515,1.92504 0,5.39012 2.31003,6.16015 0.34909,-4.17352 0.52875,-8.69095 0.52363,-13.18784 v 0.19514 c 0.006,-4.50204 -0.17467,-9.01435 -0.52363,-13.18784 -2.31003,0.77003 -1.53488,4.23511 -2.31003,6.16015 -1.1499,3.46508 -4.81005,5.20019 -8.27513,5.58005 l 0.18987,-33.68569 c 0,0 10.87778,-5.53388 16.17036,18.0954 h 1.54006 c 0,0 0.38498,-11.83774 -0.77003,-19.25044 l -35.17956,-4.13757 v 2.16121 c 0,0 3.08009,0 3.22383,2.40757 0.14364,2.4076 0,68.8704 0,68.8704 0.38498,2.69507 -2.31006,1.92504 -4.2351,1.92504 l -0.18988,2.26386 c 5.0513,0.0925 18.52662,2.01744 23.10054,2.98252 l 0.24137,-2.40757 c -0.70326,-0.46202 -4.09133,-0.24137 -4.09133,-2.16632 l 0.18987,-34.16825 -0.18987,-0.19514"
         style="fill:#ffffff;fill-rule:nonzero;stroke:none" />
      <path
         inkscape:connector-curvature="0"
         id="path3044"
         d="m 222.19148,218.9609 c 0,0 1.40144,-1.09855 2.52053,-0.8162 -0.38501,7.70018 -0.18987,22.71552 -0.18987,22.71552 h -1.3501 c -0.77003,-7.31516 -1.7813,-8.28027 -3.4651,-13.33157 -6.97634,-11.06775 -16.84285,-2.64888 -19.25045,1.7813 -1.92504,4.23511 -2.31003,9.62523 -1.15501,14.24532 4.62012,12.32029 24.25555,4.2351 28.10564,17.3254 3.85009,10.39525 0.77003,23.10053 -4.62009,31.57074 -6.6889,9.1889 -9.81516,9.67142 -18.48045,10.39526 -4.04002,0.33878 -12.02767,-5.29261 -11.79151,1.68376 h -2.16121 l 0.0925,-24.39932 h 1.92504 c -0.38501,7.70018 1.54003,16.94042 8.08516,20.02048 3.46511,2.69508 20.93425,-0.19514 18.09544,-22.71552 -3.65501,-15.73918 -18.09544,-4.43019 -25.40545,-18.09543 -4.24025,-10.39522 -0.86757,-41.91977 23.10054,-38.5009 l 1.77615,0.95997 c 2.64888,0.19514 2.64888,0.19514 2.64888,0.19514 l 1.51949,-3.03389"
         style="fill:#ffffff;fill-rule:nonzero;stroke:none" />
      <path
         inkscape:connector-curvature="0"
         id="path3046"
         d="m 371.78541,226.22986 v 2.08932 c -2.64373,-0.17435 -4.81003,-0.7238 -4.81003,2.88501 0,5.77514 0,50.46698 0,50.46698 l -14.05026,10.01021 c 0,0 -0.14891,-56.69383 -0.14891,-61.74516 0,-5.05645 0.48255,-4.5739 -3.85009,-5.77514 v -2.64885 l 22.85925,4.71763"
         style="fill:#ffffff;fill-rule:nonzero;stroke:none" />
      <path
         inkscape:connector-curvature="0"
         id="path3048"
         d="m 223.89067,311.42977 h 5.75971 v 4.77413 h 6.3347 v -4.77413 h 5.75459 v 13.14165 h -5.75459 v -4.9743 h -6.3347 v 4.9743 h -5.75971 v -13.14165"
         style="fill:#ffffff;fill-rule:nonzero;stroke:none" />
      <path
         inkscape:connector-curvature="0"
         id="path3050"
         d="m 256.20572,311.42977 h 6.02157 l 7.4897,13.14165 h -5.7084 l -1.08316,-2.14064 h -7.42297 l -1.07804,2.14064 h -5.71352 z m 5.51335,8.62934 -2.50514,-5.20019 -2.53077,5.20019 h 5.03591"
         style="fill:#ffffff;fill-rule:nonzero;stroke:none" />
      <path
         inkscape:connector-curvature="0"
         id="path3052"
         d="m 276.4264,311.42977 h 4.91271 l 8.31106,6.74537 -0.31313,-6.74537 h 5.83159 v 13.14165 h -4.91783 l -8.31108,-6.74534 0.31316,6.74534 h -5.82648 v -13.14165"
         style="fill:#ffffff;fill-rule:nonzero;stroke:none" />
      <path
         inkscape:connector-curvature="0"
         id="path3056"
         d="m 303.20763,259.49979 c 3.57289,0 6.46301,-2.89527 6.46301,-6.46304 0,-3.57285 -2.89012,-6.46813 -6.46301,-6.46813 -3.57288,0 -6.46816,2.89528 -6.46816,6.46813 0,3.56777 2.89528,6.46304 6.46816,6.46304"
         style="fill:#ffffff;fill-rule:nonzero;stroke:none" />
      <path
         inkscape:connector-curvature="0"
         id="path3058"
         d="m 308.63883,311.42977 h -4.91271 v 11.63242 l 5.63139,-2.70019 -0.1182,-2.53592 1.9507,1.57596 4.29157,-2.42299 -6.84288,-5.54928"
         style="fill:#ffffff;fill-rule:nonzero;stroke:none" />
      <path
         inkscape:connector-curvature="0"
         id="path3060"
         d="m 316.68295,311.42977 0.17466,4.70225 5.60571,-3.85521 v -0.84704 h -5.78025"
         style="fill:#ffffff;fill-rule:nonzero;stroke:none" />
      <path
         inkscape:connector-curvature="0"
         id="path3062"
         d="m 209.95334,316.18851 c -0.17467,-1.40144 -1.36037,-2.20225 -3.22383,-2.20225 -2.09444,0 -3.35214,1.32441 -3.35214,3.92194 0,1.88912 0.55444,3.66016 3.57803,3.66016 1.91989,0 2.82339,-0.99077 3.04925,-2.27925 h 5.72382 c -0.53387,3.47534 -3.8809,5.56978 -8.67041,5.56978 -6.00099,0 -9.62522,-2.72585 -9.62522,-7.09954 0,-4.35319 3.97843,-7.06365 9.04515,-7.06365 5.54413,0 8.64473,2.03797 9.12213,5.49281 h -5.64678"
         style="fill:#ffffff;fill-rule:nonzero;stroke:none" />
      <path
         inkscape:connector-curvature="0"
         id="path3064"
         d="m 350.60991,301.40415 c 0,0 14.99484,-9.44041 16.55541,-10.79051 1.56568,-1.3501 6.37574,14.37366 6.37574,14.37366 l -1.60165,4.16837 -21.3295,-7.75152"
         style="fill:#ffffff;fill-rule:nonzero;stroke:none" />
      <path
         inkscape:connector-curvature="0"
         id="path3066"
         d="m 394.04406,271.20407 c 1.44252,48.60352 -30.34382,86.31385 -67.6897,102.86925 -18.48041,7.31516 -41.96596,10.78024 -63.52647,6.16012 -12.3203,-3.46508 -24.64056,-6.93015 -35.42083,-14.63033 28.63442,-10.53899 90.95965,-42.06351 123.20285,-64.19896 6.74025,1.68376 7.94146,2.40245 14.68168,4.32749 1.15504,0.29256 6.49382,2.16633 6.49382,2.16633 v -2.64373 c 0,0 -4.81003,-0.72381 -4.81003,-3.13141 l 0.18988,-11.50919 c 8.22893,-5.88294 18.60361,-12.7669 26.87874,-19.40957"
         style="fill:#001842;fill-opacity:1;fill-rule:nonzero;stroke:none" />
      <path
         inkscape:connector-curvature="0"
         id="path3068"
         d="m 331.36974,313.43182 3.83982,-2.00205 h 8.46509 v 2.77208 h -6.55032 v 2.31518 h 5.99588 v 2.77208 h -5.99588 v 2.50511 h 6.64783 v 2.7772 h -12.40242 v -11.1396"
         style="fill:#ffffff;fill-rule:nonzero;stroke:none" />
      <path
         inkscape:connector-curvature="0"
         id="path3070"
         d="m 353.32553,311.42977 h 5.75459 v 9.84597 h 6.4579 v 3.29568 h -12.21249 v -13.14165"
         style="fill:#ffffff;fill-rule:nonzero;stroke:none" />
      <path
         inkscape:connector-curvature="0"
         id="path3072"
         d="m 315.24043,322.8158 2.31006,1.75562 h 4.91271 v -5.84187 l -7.22277,4.08625"
         style="fill:#ffffff;fill-rule:nonzero;stroke:none" />
    </g>
  </g>
</svg>
