<?xml version="1.0" encoding="utf-8"?>
<!-- Generator: Adobe Illustrator 16.0.0, SVG Export Plug-In . SVG Version: 6.00 Build 0)  -->
<!DOCTYPE svg PUBLIC "-//W3C//DTD SVG 1.1//EN" "http://www.w3.org/Graphics/SVG/1.1/DTD/svg11.dtd">
<svg version="1.1" id="Layer_1" xmlns="http://www.w3.org/2000/svg" xmlns:xlink="http://www.w3.org/1999/xlink" x="0px" y="0px"
	 width="1000px" height="597.74px" viewBox="-307.36 -183.721 1000 597.74" enable-background="new -307.36 -183.721 1000 597.74"
	 xml:space="preserve">
<g>
	<rect x="365.815" y="364.998" width="237.094" height="46.27"/>
	<rect x="-303.155" y="364.873" width="239.028" height="46.483"/>
	<polyline points="-21.164,395.581 -21.164,413.326 -35.319,413.326 -35.319,365.978 -1.091,365.978 -1.091,377.25 -21.164,377.25 
		-21.164,384.976 -5.765,384.976 -5.765,395.581 	"/>
	<path d="M37.56,393.647l-3.873-13.714l-3.872,13.714 M40.046,404.003H27.404l-2.887,9.303h-11.8l14.687-47.328h15.328
		l14.847,47.328H42.732L40.046,404.003z"/>
	<path d="M114.426,396.08c-0.894,10.908-8.804,17.939-19.729,17.939c-14.209,0-21.664-10.267-21.664-23.768
		c0-13.626,6.541-24.953,21.446-24.953c12.093,0,18.994,7.184,19.947,18.982l-13.554,0.695c0.16-4.018-1.354-9.044-6.248-9.044
		c-6.43,0-6.683,9.865-6.683,14.319c0,4.804,0.253,12.859,6.83,12.859c4.492,0,6.208-3.93,6.39-7.852"/>
	<polyline points="154.938,413.326 141.131,413.326 141.131,377.375 131.194,377.375 131.194,365.978 164.688,365.978 
		164.688,377.375 154.938,377.375 	"/>
	<path d="M203.454,365.281c-14.429,0-22.653,10.373-22.653,24.516c0,13.441,8.278,24.223,22.653,24.223
		c14.355,0,22.608-10.781,22.608-24.223C226.063,375.654,217.882,365.281,203.454,365.281 M203.454,375.986
		c6.39,0,7.085,9.241,7.085,13.884c0,4.545-0.473,13.297-7.085,13.297s-7.103-8.752-7.103-13.297
		C196.352,385.227,197.02,375.986,203.454,375.986"/>
	<polyline points="331.986,393.299 331.986,413.326 317.907,413.326 317.907,393.299 301.999,365.994 317.907,365.994 
		326.204,381.573 334.144,365.994 346.842,365.994 	"/>
	<path d="M278.439,392.667c5.601-2.56,8.351-6.27,8.351-12.479c0-4.64-1.851-8.85-5.78-11.31c-3.53-2.36-8.09-2.9-12.23-2.9h-24.08
		v47.33h14.7v-18.07h4.55l6.9,18.07H287L278.439,392.667z M270.06,383.958c-1.12,0.761-2.59,1.141-4.43,1.141h-6.23v-9.04h6.721
		c3.739,0,5.609,1.51,5.609,4.54C271.729,382.078,271.17,383.198,270.06,383.958z"/>
	<rect x="-307.36" y="-137.567" fill="#ED1C24" width="162.648" height="450.658"/>
	<rect x="-119.762" y="-165.942" width="162.599" height="450.566"/>
	<rect x="65.39" y="-116.191" fill="#ED1C24" width="162.695" height="450.609"/>
	<rect x="252.337" y="-183.721" width="162.729" height="450.65"/>
	<rect x="438.24" y="-158.893" fill="#ED1C24" width="162.685" height="450.657"/>
	<path fill="#FFFFFF" d="M-233.209,88.105v46.288c0,8.121,2.087,11.584,7.742,11.584c4.475,0,7.729-2.902,7.729-7.27v-4.314v-35.22
		c0-8.462-1.125-12.007-10.122-16.666l-34.255-18.59c-16.692-9.066-22.384-22.101-22.384-42.531V-6.221
		c0-43.343,8.084-49.238,58.457-49.238c38.728,0,58.373,3.546,58.373,34.918v14.32v35.168h-50.239V-4.727
		c0-8.208-1.305-11.667-8.131-11.667c-5.907,0-7.169,4.356-7.169,11.667V17.67c0,8.462,1.563,11.88,10.124,16.539l31.558,16.583
		c19.127,9.961,23.858,22.186,23.858,40.775v44.238c0,17.226,1.005,28.764-6.165,37.83c-8.128,10.466-23.902,11.409-51.245,11.409
		c-49.854,0-59.419-5.001-59.419-49.239V88.107h51.29V88.105z"/>
	<polygon fill="#FFFFFF" points="-97.121,-81.832 -46.134,-81.832 -46.134,5.489 -31.007,5.489 -31.007,-81.832 20.371,-81.832 
		20.371,154.481 -31.007,154.481 -31.007,53.315 -46.134,53.315 -46.134,154.481 -97.121,154.481 	"/>
	<path fill="#FFFFFF" d="M139.329,16.902v-4.448c0-4.659,2.432-7.219,6.517-7.219c6.912,0,8.345,3.159,8.345,11.667v138.264v4.572
		c0,4.745-2.739,7.27-7.385,7.27c-6.038,0-7.478-3.721-7.478-11.842V16.902z M87.998,15.406V156.58
		c0,44.575,8.394,49.791,58.809,49.791c51.503,0,58.674-6.154,58.674-49.791V15.406c0-43.983-8.263-49.707-58.975-49.707
		C93.739-34.3,87.998-27.336,87.998,15.406"/>
	<path fill="#FFFFFF" d="M326.223-99.61V88.188c0,8.081,1.787,11.626,7.525,11.626c4.735,0,7.473-2.651,7.473-7.608v-4.019V-99.61
		h51.203V89.601c0,43.383-7.125,49.242-58.673,49.242c-50.42,0-58.765-4.964-58.765-49.242V-99.61H326.223z"/>
	<polygon fill="#FFFFFF" points="494.131,-26.313 467.927,-26.313 467.927,-74.697 571.37,-74.697 571.37,-26.313 545.116,-26.313 
		545.116,161.619 494.131,161.619 	"/>
	<path d="M691.515,173.248c-2.097,18.334-20.303,32.778-38.556,30.599c-19.429-2.312-34.469-19.015-32.03-39.363
		c2.207-18.719,19.256-33.255,38.588-30.898C680.121,135.972,693.945,152.258,691.515,173.248 M692.64-106.492l-23.996,231.438
		h-26.082l-22.729-231.438H692.64z"/>
</g>
</svg>
