<?xml version="1.0" encoding="UTF-8" standalone="no"?>
<svg
   width="1000"
   height="292.49228"
   class="Z0g3x XLiXu Is8bN j1Cm5"
   preserveAspectRatio="xMidYMid"
   viewBox="0 0 1000 292.49229"
   role="img"
   version="1.1"
   id="svg5"
   sodipodi:docname="Tubi2024 purple.svg"
   xml:space="preserve"
   inkscape:version="1.3.2 (091e20e, 2023-11-25, custom)"
   xmlns:inkscape="http://www.inkscape.org/namespaces/inkscape"
   xmlns:sodipodi="http://sodipodi.sourceforge.net/DTD/sodipodi-0.dtd"
   xmlns="http://www.w3.org/2000/svg"
   xmlns:svg="http://www.w3.org/2000/svg"
   xmlns:rdf="http://www.w3.org/1999/02/22-rdf-syntax-ns#"
   xmlns:cc="http://creativecommons.org/ns#"
   xmlns:dc="http://purl.org/dc/elements/1.1/"><defs
     id="defs5" /><sodipodi:namedview
     id="namedview5"
     pagecolor="#ffffff"
     bordercolor="#111111"
     borderopacity="1"
     inkscape:showpageshadow="0"
     inkscape:pageopacity="0"
     inkscape:pagecheckerboard="1"
     inkscape:deskcolor="#d1d1d1"
     inkscape:zoom="0.6"
     inkscape:cx="459.16667"
     inkscape:cy="99.166667"
     inkscape:window-width="1366"
     inkscape:window-height="705"
     inkscape:window-x="-8"
     inkscape:window-y="-8"
     inkscape:window-maximized="1"
     inkscape:current-layer="svg5" /><title
     id="title1">Tubi logo</title><path
     id="path1"
     d="M 44.216494,0 V 60.406809 H 0 v 96.951911 h 44.216494 v 25.83434 c 0,72.30324 43.442785,109.26998 110.760426,109.26998 25.90515,0 52.18453,-5.57187 75.69116,-17.09627 v -77.09392 c -11.55355,3.96738 -23.50999,6.3563 -35.4638,6.3563 -21.50758,0 -41.03103,-9.9219 -41.03103,-38.53235 V 0 Z M 586.85488,0.0147 v 286.10664 h 109.95677 v -40.12508 c 15.13192,22.64852 38.63702,46.49601 78.87659,46.49601 54.18787,0 97.59482,-40.54851 97.59482,-119.22088 0,-78.673113 -43.40695,-119.206279 -97.59482,-119.206279 -40.23957,0 -63.74467,23.846746 -78.87659,46.495999 V 0.014612 Z M 223.88801,54.065111 c -33.46138,0 -55.76012,23.449546 -55.76012,55.628619 0,32.17984 22.29874,55.61402 55.76012,55.61402 33.46068,0 55.77474,-23.43418 55.77474,-55.61402 0,-32.179073 -22.31406,-55.628619 -55.77474,-55.628619 z m 70.12392,6.341698 V 206.64563 c 0,61.98581 37.04712,85.83203 82.06208,85.83203 45.01495,0 66.14001,-17.88555 82.47122,-46.496 v 40.13968 H 565.31651 V 60.406809 H 455.35977 V 198.28745 c 0,22.2505 -12.34473,30.61256 -27.07639,30.61256 -13.9521,0 -24.3147,-8.36206 -24.3147,-30.61256 V 60.406809 Z m 596.03136,0 V 286.12134 H 1000 V 60.406809 Z M 728.28631,117.64277 c 22.31112,0 35.06923,19.86069 35.06923,55.62862 0,35.74771 -12.36158,55.62862 -35.06923,55.62862 -22.70687,0 -35.05465,-19.88091 -35.05465,-55.62862 0,-35.74848 12.74729,-55.62862 35.05465,-55.62862 z"
     style="fill:#7408ff;fill-opacity:1;stroke-width:7.48144" /><metadata
     id="metadata5"><rdf:RDF><cc:Work
         rdf:about=""><dc:title>Tubi logo</dc:title></cc:Work></rdf:RDF></metadata></svg>
