<?xml version="1.0" encoding="UTF-8" standalone="no"?>
<svg
   xmlns:dc="http://purl.org/dc/elements/1.1/"
   xmlns:cc="http://creativecommons.org/ns#"
   xmlns:rdf="http://www.w3.org/1999/02/22-rdf-syntax-ns#"
   xmlns:svg="http://www.w3.org/2000/svg"
   xmlns="http://www.w3.org/2000/svg"
   xmlns:sodipodi="http://sodipodi.sourceforge.net/DTD/sodipodi-0.dtd"
   xmlns:inkscape="http://www.inkscape.org/namespaces/inkscape"
   viewBox="0 0 512 512"
   version="1.1"
   id="svg4"
   sodipodi:docname="xmark-solid.svg"
   inkscape:version="0.92.2 (5c3e80d, 2017-08-06)">
  <metadata
     id="metadata10">
    <rdf:RDF>
      <cc:Work
         rdf:about="">
        <dc:format>image/svg+xml</dc:format>
        <dc:type
           rdf:resource="http://purl.org/dc/dcmitype/StillImage" />
        <dc:title></dc:title>
      </cc:Work>
    </rdf:RDF>
  </metadata>
  <defs
     id="defs8" />
  <sodipodi:namedview
     pagecolor="#ffffff"
     bordercolor="#000000"
     borderopacity="0.25"
     objecttolerance="10"
     gridtolerance="10"
     guidetolerance="10"
     inkscape:pageopacity="0"
     inkscape:pageshadow="2"
     inkscape:window-width="1317"
     inkscape:window-height="824"
     id="namedview6"
     showgrid="false"
     inkscape:zoom="0.4609375"
     inkscape:cx="-175.72881"
     inkscape:cy="256"
     inkscape:window-x="0"
     inkscape:window-y="0"
     inkscape:window-maximized="0"
     inkscape:current-layer="svg4" />
  <!--!Font Awesome Free 6.6.0 by @fontawesome - https://fontawesome.com License - https://fontawesome.com/license/free Copyright 2024 Fonticons, Inc.-->
  <path
     d="m 466.72945,108.51737 c 17.49083,-17.49083 17.49083,-45.895929 0,-63.386754 -17.49082,-17.490824 -45.89592,-17.490824 -63.38674,0 L 256,192.61325 108.51737,45.270543 c -17.490826,-17.490825 -45.895936,-17.490825 -63.386756,0 -17.49082,17.490824 -17.49082,45.895924 0,63.386747 L 192.61325,256 45.270544,403.48263 c -17.49083,17.49083 -17.49083,45.89593 0,63.38675 17.49082,17.49083 45.89592,17.49083 63.386746,0 L 256,319.38675 403.48263,466.72945 c 17.49083,17.49083 45.89593,17.49083 63.38675,0 17.49083,-17.49082 17.49083,-45.89592 0,-63.38674 L 319.38675,256 Z"
     id="path2"
     inkscape:connector-curvature="0"
     style="fill:#b8b6c6;fill-opacity:1;stroke-width:1.399266" />
</svg>
